<?xml version="1.0" encoding="UTF-8"?>
<svg width="70px" height="50px" viewBox="0 0 70 50" version="1.1" xmlns="http://www.w3.org/2000/svg" xmlns:xlink="http://www.w3.org/1999/xlink">
    <!-- Generator: Sketch 46.2 (44496) - http://www.bohemiancoding.com/sketch -->
    <title>Group</title>
    <desc>Created with Sketch.</desc>
    <defs></defs>
    <g id="Page-1" stroke="none" stroke-width="1" fill="none" fill-rule="evenodd">
        <g id="Group" fill="#54A3DA">
            <path d="M41.1016,18.5321 L41.0996,18.5331 L41.1016,18.5321 Z M40.4236,12.1301 L40.4216,12.1301 L40.4246,12.1331 C40.4246,12.1321 40.4236,12.1301 40.4236,12.1301 Z M40.4236,12.1291 L40.4236,12.1301 L40.4236,12.1291 Z M69.1236,13.1511 C69.1936,13.2791 69.1806,13.4061 69.0606,13.4841 C68.9556,13.5521 68.9226,13.6771 68.8196,13.7391 C68.8146,13.7421 68.8096,13.7481 68.8086,13.7541 C68.7756,13.8801 68.6926,13.9701 68.6046,14.0611 C68.5746,14.0921 68.5496,14.1271 68.5106,14.1491 C68.3636,14.2311 68.2726,14.3661 68.1836,14.5031 C68.1226,14.5971 68.0716,14.6971 68.0116,14.7921 C67.9966,14.8191 67.9716,14.8411 67.9476,14.8601 C67.8246,14.9561 67.7056,15.0571 67.5786,15.1481 C67.4546,15.2371 67.3236,15.3261 67.2546,15.4761 C67.1946,15.6071 67.0536,15.6601 66.9546,15.7551 C66.9456,15.7631 66.9306,15.7651 66.9216,15.7731 C66.7396,15.9371 66.5136,16.0351 66.3096,16.1661 C66.2436,16.2091 66.1896,16.2651 66.1046,16.2861 C66.0366,16.3031 65.9816,16.3691 65.9156,16.4051 C65.8596,16.4361 65.8136,16.4751 65.7676,16.5191 C65.7256,16.5601 65.7026,16.6061 65.6946,16.6661 C65.6776,16.7901 65.6096,16.8821 65.4996,16.9481 C65.3616,17.0321 65.2066,17.0811 65.0616,17.1501 C64.8986,17.2261 64.7146,17.2501 64.5616,17.3521 C64.5226,17.3791 64.4676,17.3841 64.4176,17.3941 C64.3316,17.4121 64.2476,17.4281 64.1756,17.4881 C64.1406,17.5191 64.0926,17.5161 64.0496,17.5121 C63.9546,17.5051 63.8636,17.5311 63.7716,17.5511 C63.7276,17.5611 63.6836,17.5731 63.6526,17.6031 C63.5906,17.6641 63.5146,17.6861 63.4346,17.7031 C63.2996,17.7311 63.1676,17.7721 63.0306,17.7801 C62.9916,17.7821 62.9586,17.7981 62.9256,17.8181 C62.8306,17.8731 62.7286,17.8931 62.6196,17.8931 C62.4626,17.8921 62.3056,17.8811 62.1526,17.9261 C62.1116,17.9381 62.0646,17.9301 62.0206,17.9301 C61.6066,17.9301 61.1926,17.9301 60.7786,17.9301 C60.7036,17.9301 60.6286,17.9291 60.5546,17.9061 C60.4766,17.8801 60.3926,17.8901 60.3116,17.8951 C60.2826,17.8971 60.2476,17.9071 60.2256,17.9261 C60.1006,18.0331 59.9936,18.1521 59.9666,18.3241 C59.9596,18.3671 59.9426,18.4081 59.9366,18.4521 C59.9276,18.5061 59.9066,18.5471 59.8576,18.5721 C59.7966,18.6011 59.7856,18.6541 59.7856,18.7141 L59.7856,19.1471 C59.7856,19.2091 59.7816,19.2711 59.7636,19.3321 C59.7346,19.4361 59.7386,19.5431 59.7596,19.6491 C59.7656,19.6791 59.7806,19.7141 59.7726,19.7401 C59.7246,19.8881 59.7526,20.0391 59.7466,20.1891 C59.7446,20.2331 59.7446,20.2771 59.7446,20.3211 C59.7446,20.3711 59.7416,20.4201 59.7026,20.4601 C59.6746,20.4901 59.6716,20.5291 59.6716,20.5671 C59.6726,20.6921 59.6636,20.8151 59.6406,20.9401 C59.6216,21.0431 59.6336,21.1531 59.6326,21.2591 C59.6316,21.3531 59.6416,21.4481 59.6036,21.5381 C59.6006,21.5441 59.6016,21.5501 59.5996,21.5561 C59.5726,21.6561 59.6406,21.7601 59.6026,21.8511 C59.5636,21.9491 59.5556,22.0451 59.5566,22.1451 C59.5566,22.2261 59.5616,22.3081 59.5056,22.3791 C59.4776,22.4141 59.4836,22.4621 59.4836,22.5061 C59.4826,22.5881 59.4836,22.6691 59.4826,22.7511 C59.4816,22.8141 59.4856,22.8761 59.4636,22.9371 C59.4556,22.9661 59.4486,23.0021 59.4566,23.0291 C59.5026,23.1721 59.4846,23.3131 59.4506,23.4491 C59.4536,23.4961 59.4856,23.5201 59.5066,23.5501 C59.5246,23.5751 59.5486,23.6041 59.5486,23.6311 C59.5506,23.7211 59.5766,23.8021 59.6216,23.8801 C59.6426,23.9171 59.6366,23.9671 59.6206,24.0091 C59.5926,24.0811 59.5946,24.1561 59.5946,24.2321 C59.5966,24.3891 59.5626,24.5371 59.5046,24.6861 C59.4626,24.7941 59.4426,24.9131 59.4436,25.0351 C59.4446,25.2041 59.4136,25.3691 59.3576,25.5301 C59.3206,25.6321 59.3106,25.7321 59.3886,25.8301 C59.5106,25.9861 59.5016,26.1711 59.4646,26.3511 C59.4476,26.4391 59.4356,26.5231 59.4656,26.6091 C59.4746,26.6321 59.4786,26.6581 59.4786,26.6831 C59.4776,26.9021 59.4996,27.1221 59.4436,27.3381 C59.4396,27.3501 59.4436,27.3651 59.4376,27.3751 C59.3286,27.5551 59.2516,27.7591 59.0686,27.8851 C59.0286,27.9121 58.9856,27.9141 58.9426,27.8991 C58.8776,27.8761 58.8186,27.8391 58.7486,27.8281 C58.7326,27.8261 58.7106,27.8151 58.7026,27.8011 C58.6136,27.6601 58.4446,27.6611 58.3196,27.5831 C58.2626,27.5481 58.2026,27.5861 58.1636,27.6491 C58.1216,27.7201 58.1156,27.7901 58.1576,27.8631 C58.1856,27.9111 58.2096,27.9621 58.2416,28.0091 C58.2676,28.0491 58.2826,28.0881 58.2546,28.1311 C58.2226,28.1821 58.1766,28.2161 58.1146,28.2061 C58.0786,28.2001 58.0336,28.1891 58.0126,28.1641 C57.9646,28.1071 57.8906,28.0731 57.8636,27.9981 C57.8446,27.9451 57.8076,27.9181 57.7516,27.9111 C57.7136,27.9071 57.6806,27.8911 57.6516,27.8651 C57.5136,27.7471 57.3746,27.6301 57.2406,27.5091 C57.2036,27.4751 57.1746,27.4331 57.1236,27.4171 C57.0986,27.4091 57.0836,27.3881 57.0766,27.3641 C57.0596,27.3141 57.0216,27.2821 56.9866,27.2451 C56.9296,27.1881 56.8896,27.1111 56.8246,27.0681 C56.7596,27.0241 56.7156,26.9671 56.6636,26.9141 C56.6406,26.8921 56.6076,26.8681 56.6056,26.8431 C56.5946,26.7171 56.4986,26.6151 56.5076,26.4851 C56.5106,26.4411 56.5066,26.3961 56.4786,26.3591 C56.4276,26.2941 56.4356,26.2181 56.4346,26.1431 C56.4336,26.0841 56.4496,26.0371 56.4976,25.9951 C56.6526,25.8631 56.5716,25.7411 56.4296,25.6821 C56.4076,25.6731 56.3816,25.6571 56.3596,25.6591 C56.1976,25.6801 56.0606,25.5661 55.9016,25.5741 C55.8656,25.5761 55.8276,25.5701 55.7816,25.5661 C55.7726,25.5541 55.7606,25.5391 55.7496,25.5241 C55.6536,25.3941 55.5376,25.2931 55.3656,25.2891 C55.1966,25.2861 55.0966,25.1741 54.9926,25.0661 C54.9576,25.0301 54.9226,24.9921 54.8976,24.9491 C54.8556,24.8771 54.7946,24.8271 54.7276,24.7781 C54.6316,24.7081 54.5466,24.6241 54.4556,24.5491 C54.4126,24.5131 54.3986,24.4681 54.3966,24.4161 C54.3936,24.3661 54.3676,24.3261 54.3226,24.3181 C54.2226,24.3021 54.1496,24.2211 54.0446,24.2151 C53.9776,24.2111 53.9276,24.1631 53.9146,24.0961 C53.8886,23.9731 53.7856,23.9181 53.7016,23.8481 C53.6646,23.8171 53.6186,23.7951 53.5806,23.7611 C53.4756,23.6611 53.4746,23.6621 53.3186,23.6471 C53.2686,23.6331 53.2726,23.5731 53.2356,23.5501 C53.1636,23.5051 53.1466,23.4291 53.1276,23.3581 C53.1096,23.2851 53.1086,23.2111 53.0606,23.1451 C53.0346,23.1081 53.0426,23.0611 53.0746,23.0231 C53.0906,23.0041 53.1086,22.9861 53.1216,22.9651 C53.1746,22.8691 53.1666,22.7851 53.0916,22.7071 C53.0446,22.6581 52.9996,22.5991 52.9216,22.6021 C52.8256,22.6061 52.7326,22.5871 52.6366,22.6571 C52.5026,22.7551 52.4176,22.8731 52.3766,23.0301 C52.3686,23.0661 52.3616,23.1031 52.3526,23.1391 C52.3206,23.2701 52.3306,23.3001 52.4576,23.3541 C52.5176,23.3801 52.5656,23.4141 52.6106,23.4611 C52.5496,23.5621 52.5216,23.6681 52.5126,23.7821 C52.5056,23.8731 52.5366,23.9371 52.6236,23.9771 C52.6986,24.0121 52.7746,24.0371 52.8536,24.0421 C52.9086,24.0931 52.9476,24.1491 52.9776,24.2121 C52.9966,24.2501 52.9926,24.2861 52.9696,24.3181 C52.9256,24.3801 52.8776,24.4341 52.7946,24.4491 C52.5886,24.4851 52.4136,24.5991 52.2276,24.6861 C52.0966,24.7481 52.0166,24.8601 51.9876,25.0041 C51.9816,25.0341 51.9786,25.0651 51.9736,25.0961 C51.8776,25.1611 51.7936,25.2351 51.6856,25.2751 C51.6226,25.2981 51.5706,25.3401 51.5236,25.3961 C51.4546,25.4821 51.3646,25.5521 51.2846,25.6291 C51.2526,25.6591 51.2216,25.6911 51.1966,25.7261 C51.1226,25.8301 51.0376,25.9201 50.9216,25.9761 C50.8756,25.9981 50.8536,26.0521 50.8006,26.0571 C50.7646,26.0561 50.7376,26.0401 50.7156,26.0161 C50.6546,25.9451 50.5726,25.9391 50.4916,25.9591 C50.4256,25.9741 50.3536,25.9801 50.2966,26.0231 C50.2056,26.0931 50.1056,26.0581 50.0016,26.0561 C50.0016,26.0561 49.9936,26.0541 49.9906,26.0501 C49.9376,25.9661 49.8316,25.9581 49.7666,25.8871 C49.7116,25.8301 49.6446,25.7851 49.6316,25.7091 C49.5896,25.6911 49.5596,25.6961 49.5316,25.7121 C49.4016,25.7871 49.2686,25.8581 49.1676,25.9731 C49.1356,26.0101 49.1086,26.0571 49.0686,26.0821 C49.0276,26.1061 48.9736,26.1071 48.9306,26.1171 C48.8816,26.1781 48.9046,26.2441 48.8986,26.3041 C48.8886,26.3991 48.8236,26.4521 48.7296,26.4271 C48.6586,26.4071 48.5826,26.4021 48.5186,26.3531 C48.4646,26.3141 48.3926,26.3141 48.3366,26.3421 C48.1666,26.4271 47.9856,26.4981 47.8716,26.6671 C47.8506,26.6971 47.8186,26.7221 47.7876,26.7401 C47.5616,26.8631 47.3606,27.0231 47.1436,27.1601 C47.0896,27.1951 47.0336,27.2151 46.9736,27.2341 C46.8676,27.2681 46.7626,27.3061 46.6606,27.3541 C46.5536,27.4041 46.4406,27.4501 46.3176,27.3961 C46.2956,27.3861 46.2656,27.3811 46.2446,27.3871 C46.1156,27.4301 45.9786,27.4291 45.8556,27.5121 C45.7236,27.6011 45.5686,27.6621 45.4166,27.7181 C45.3256,27.7521 45.2666,27.8281 45.1816,27.8681 C45.0976,27.9071 45.0066,27.9391 44.9536,28.0261 C44.9166,28.0841 44.8566,28.1011 44.7896,28.0991 C44.7256,28.0971 44.6646,28.1011 44.6106,28.1431 C44.5676,28.1761 44.5156,28.1731 44.4656,28.1731 C44.3336,28.1731 44.2026,28.1721 44.0706,28.1731 C43.9886,28.1741 43.9066,28.1771 43.8376,28.1181 C43.8256,28.1091 43.8016,28.1091 43.7846,28.1111 C43.7646,28.1141 43.7486,28.1301 43.7536,28.1511 C43.7636,28.1971 43.8046,28.2201 43.8326,28.2531 C43.8936,28.3241 43.9686,28.3461 44.0516,28.3021 C44.1386,28.2541 44.2306,28.2511 44.3256,28.2531 C44.3756,28.2541 44.4266,28.2481 44.4766,28.2541 C44.6346,28.2701 44.7876,28.2281 44.9426,28.2141 C44.9726,28.2111 45.0026,28.2081 45.0316,28.2051 C45.0506,28.2431 45.0606,28.2921 45.0856,28.3041 C45.1536,28.3351 45.2276,28.3771 45.3006,28.3581 C45.3926,28.3331 45.4646,28.3521 45.5486,28.3901 C45.6256,28.4251 45.7186,28.4281 45.8056,28.4371 C45.8716,28.4441 45.9276,28.4611 45.9736,28.5091 C45.9996,28.5371 46.0356,28.5511 46.0746,28.5531 C46.2736,28.5691 46.4376,28.6781 46.6096,28.7611 C46.6636,28.7881 46.7186,28.8191 46.7736,28.8481 C46.8176,28.8721 46.8596,28.9001 46.9006,28.9281 C46.9266,28.9451 46.9506,28.9791 46.9766,28.9801 C47.1166,28.9871 47.1996,29.0931 47.2916,29.1691 C47.4076,29.2641 47.5306,29.3511 47.6446,29.4481 C47.7436,29.5311 47.8496,29.6071 47.9436,29.6981 C48.0376,29.7891 48.1326,29.8791 48.2196,29.9771 C48.2676,30.0321 48.3036,30.1001 48.3346,30.1671 C48.3626,30.2261 48.3946,30.2741 48.4476,30.3131 C48.4816,30.3391 48.5016,30.3801 48.5306,30.4141 C48.5856,30.4801 48.6296,30.5581 48.7056,30.6091 C48.7256,30.6221 48.7476,30.6411 48.7566,30.6621 C48.7866,30.7321 48.8216,30.7971 48.8816,30.8451 C48.8876,30.9261 48.9556,30.9731 48.9906,31.0381 C49.0586,31.1641 49.1216,31.2921 49.2056,31.4081 C49.2186,31.4281 49.2246,31.4541 49.2346,31.4761 C49.2766,31.5721 49.3086,31.6721 49.3886,31.7471 C49.4096,31.7661 49.4186,31.8011 49.4276,31.8301 C49.4526,31.9071 49.4766,31.9861 49.4946,32.0651 C49.5056,32.1211 49.5216,32.1731 49.5636,32.2151 C49.6286,32.2811 49.6556,32.3631 49.6526,32.4551 C49.6516,32.4801 49.6476,32.5111 49.6606,32.5291 C49.7396,32.6491 49.7846,32.7831 49.8386,32.9151 C49.8696,32.9901 49.9066,33.0601 49.9146,33.1431 C49.9236,33.2491 49.9436,33.3531 49.9996,33.4461 C50.0286,33.4921 50.0306,33.5421 50.0266,33.5921 C50.0136,33.7381 50.0446,33.8801 50.0766,34.0201 C50.0946,34.1001 50.1026,34.1801 50.1036,34.2611 L50.1036,35.0141 C50.1036,35.0521 50.1116,35.0931 50.1006,35.1271 C50.0586,35.2541 50.0906,35.3731 50.1236,35.4931 C50.1616,35.6261 50.1196,35.7401 50.0286,35.8381 C49.9726,35.8971 49.9116,35.9501 49.8506,36.0061 C49.7356,36.1121 49.6826,36.3311 49.7396,36.4751 C49.7416,36.4811 49.7436,36.4881 49.7476,36.4921 C49.8646,36.6021 49.8906,36.7701 49.9976,36.8871 C50.0216,36.9141 50.0306,36.9541 50.0466,36.9881 C50.0796,37.0551 50.1226,37.1171 50.1606,37.1821 C50.2616,37.3541 50.3626,37.5261 50.5056,37.6671 C50.5096,37.7701 50.6136,37.8131 50.6456,37.9051 C50.6726,37.9831 50.7466,38.0461 50.7996,38.1151 C50.8276,38.1501 50.8496,38.1861 50.8616,38.2301 C50.9106,38.4011 50.9956,38.5471 51.1316,38.6671 C51.1906,38.7181 51.2326,38.7981 51.2586,38.8731 C51.3226,39.0551 51.3676,39.2441 51.4626,39.4141 C51.4526,39.5281 51.5046,39.6201 51.5656,39.7071 C51.6556,39.8351 51.7276,39.9721 51.8016,40.1081 C51.8606,40.2181 51.8486,40.3381 51.8086,40.4541 C51.7986,40.4831 51.7766,40.5081 51.7646,40.5361 C51.7036,40.6881 51.5886,40.7591 51.4266,40.7551 C51.4026,40.7541 51.3766,40.7511 51.3516,40.7481 C51.2986,40.7041 51.2606,40.6391 51.1906,40.6231 C51.1076,40.6051 51.0596,40.5461 51.0276,40.4791 C50.9816,40.3841 50.9266,40.3091 50.8126,40.2931 C50.7626,40.2851 50.7276,40.2461 50.6946,40.2051 C50.6386,40.1381 50.5746,40.0781 50.5136,40.0151 C50.4816,40.0181 50.4556,40.0161 50.4336,40.0251 C50.3166,40.0731 50.2456,40.0021 50.1736,39.9281 C50.1516,39.9051 50.1466,39.8731 50.1436,39.8421 C50.1296,39.7181 50.1156,39.5941 50.1016,39.4691 C50.0996,39.4571 50.0986,39.4441 50.0936,39.4321 C50.0096,39.2491 49.9826,39.0511 49.9476,38.8551 C49.9356,38.7901 49.8996,38.7241 49.8596,38.6711 C49.8086,38.6041 49.7756,38.5301 49.7486,38.4541 C49.7216,38.3741 49.6766,38.3111 49.6196,38.2521 C49.5196,38.1481 49.4256,38.0401 49.3296,37.9331 C49.3166,37.9201 49.3056,37.9001 49.2896,37.8931 C49.1796,37.8491 49.1146,37.7321 48.9896,37.7121 C48.9446,37.7051 48.9106,37.6791 48.8826,37.6411 C48.8696,37.6211 48.8466,37.6071 48.8286,37.5911 C48.7816,37.5501 48.7366,37.4921 48.6646,37.5261 C48.5886,37.5611 48.5286,37.6171 48.5246,37.7091 C48.5166,37.8611 48.4626,38.0031 48.4426,38.1521 C48.4416,38.1641 48.4426,38.1801 48.4346,38.1881 C48.3536,38.2841 48.3656,38.4131 48.3206,38.5221 C48.3036,38.5611 48.2986,38.6071 48.2956,38.6501 C48.2866,38.8001 48.2636,38.9471 48.2086,39.0891 C48.1776,39.1701 48.1666,39.2581 48.1466,39.3441 C48.1396,39.3741 48.1396,39.4101 48.1226,39.4331 C48.0026,39.6001 47.9266,39.7941 47.7916,39.9521 C47.7316,40.0231 47.6646,40.0481 47.5776,40.0391 C47.5306,40.0331 47.4946,40.0141 47.4746,39.9691 C47.4626,39.9401 47.4556,39.9071 47.4386,39.8821 C47.3026,39.6841 47.3826,39.7061 47.1506,39.6441 C47.0236,39.6101 46.9686,39.5211 46.9026,39.4321 C46.8836,39.4081 46.8736,39.3761 46.8666,39.3461 C46.8486,39.2821 46.8086,39.2531 46.7446,39.2511 C46.7126,39.2501 46.6806,39.2481 46.6506,39.2421 C46.6116,39.2341 46.5816,39.2101 46.5716,39.1711 C46.5226,38.9991 46.5066,38.8261 46.5446,38.6511 C46.5856,38.4681 46.6436,38.2911 46.7006,38.1141 C46.7356,38.0051 46.7306,37.8861 46.7706,37.7851 C46.8106,37.6871 46.8566,37.5951 46.8756,37.4891 C46.8896,37.4111 46.9046,37.3321 46.9586,37.2631 C46.9996,37.2111 47.0166,37.1381 47.0156,37.0671 C47.0136,37.0021 47.0376,36.9431 47.0596,36.8851 C47.1366,36.6871 47.1806,36.4991 47.2076,36.2901 C47.2216,36.1851 47.2496,36.0811 47.2476,35.9741 C47.2476,35.9561 47.2536,35.9341 47.2646,35.9221 C47.3166,35.8651 47.3166,35.7971 47.3166,35.7271 C47.3166,35.3571 47.3176,34.9871 47.3176,34.6161 C47.3176,34.5351 47.3196,34.4551 47.2666,34.3831 C47.2316,34.3351 47.2456,34.2731 47.2446,34.2171 C47.2416,34.1041 47.2376,33.9931 47.2136,33.8811 C47.1916,33.7741 47.1526,33.6781 47.0986,33.5871 C47.0726,33.5441 47.0356,33.5011 47.0296,33.4551 C47.0096,33.3201 46.9296,33.2141 46.8766,33.0951 C46.8696,33.0771 46.8616,33.0591 46.8486,33.0461 C46.6546,32.8451 46.4866,32.6151 46.2406,32.4671 C46.1796,32.4301 46.1156,32.4061 46.0476,32.3941 C45.8466,32.3591 45.6736,32.2611 45.5006,32.1611 C45.4906,32.1551 45.4816,32.1441 45.4696,32.1411 C45.2466,32.0911 45.0686,31.9391 44.8556,31.8661 C44.8266,31.8561 44.7976,31.8411 44.7736,31.8241 C44.6406,31.7291 44.5056,31.6401 44.3406,31.6131 C44.3246,31.6101 44.3066,31.5961 44.2976,31.5831 C44.2566,31.5221 44.1966,31.4901 44.1336,31.4611 C44.0636,31.4281 44.0006,31.3901 43.9716,31.3131 C43.9556,31.2701 43.9186,31.2441 43.8846,31.2171 C43.7856,31.1361 43.6836,31.1231 43.5746,31.1841 C43.5246,31.2111 43.4766,31.2401 43.4276,31.2681 C43.3886,31.2911 43.3576,31.3211 43.3336,31.3601 C43.2896,31.4341 43.2446,31.5101 43.2006,31.5861 C43.1636,31.6511 43.1336,31.7191 43.1286,31.7981 C43.1256,31.8701 43.0876,31.9271 43.0206,31.9621 C42.9886,31.9801 42.9606,32.0071 42.9326,32.0311 C42.8876,32.0681 42.8366,32.0891 42.7786,32.0931 C42.6646,32.0991 42.5626,32.1291 42.4596,32.1881 C42.3476,32.2531 42.2156,32.2711 42.0806,32.2511 C41.9756,32.2351 41.8676,32.2431 41.7606,32.2411 C41.6666,32.2401 41.5736,32.2441 41.4806,32.2141 C41.4346,32.1991 41.3806,32.2001 41.3306,32.2041 C41.2206,32.2131 41.1206,32.1861 41.0266,32.1301 C40.7856,32.3091 40.5316,32.3221 40.2716,32.1781 C40.1996,32.1371 40.1236,32.1121 40.0446,32.0941 C39.9236,32.0671 39.7966,32.0631 39.6856,31.9961 C39.6566,31.9791 39.6126,31.9831 39.5756,31.9801 C39.5196,31.9751 39.4576,31.9871 39.4076,31.9681 C39.2966,31.9271 39.1946,31.9561 39.0976,31.9961 C38.9986,32.0361 38.9136,32.0261 38.8146,31.9981 C38.7016,31.9671 38.5826,31.9491 38.4686,31.9151 C38.3836,31.8901 38.3026,31.8601 38.2246,31.8201 C38.1296,31.7711 38.0326,31.7291 37.9246,31.7161 C37.8866,31.7111 37.8556,31.6921 37.8216,31.6771 C37.6786,31.6141 37.5336,31.5561 37.3726,31.5641 C37.2886,31.5681 37.2196,31.5531 37.1466,31.4971 C36.9566,31.3521 36.7406,31.2551 36.5046,31.2061 C36.4986,31.2041 36.4906,31.2081 36.4866,31.2051 C36.3856,31.1091 36.2536,31.1351 36.1336,31.1161 C36.0496,31.1041 35.9746,31.0831 35.9136,31.0251 C35.8706,30.9831 35.8206,30.9681 35.7626,30.9591 C35.5716,30.9301 35.4046,30.8511 35.2806,30.6991 C35.2266,30.6331 35.1276,30.6221 35.0916,30.5511 C35.0526,30.4751 35.0006,30.4161 34.9436,30.3591 C34.8906,30.3061 34.8396,30.2491 34.7806,30.2051 C34.6866,30.1351 34.6346,30.0341 34.5726,29.9411 C34.5416,29.8941 34.5156,29.8481 34.4786,29.8041 C34.3836,29.6911 34.3796,29.5501 34.4096,29.4111 C34.4286,29.3201 34.4486,29.2231 34.4856,29.1411 C34.5356,29.0321 34.6196,28.9331 34.7036,28.8441 C34.7426,28.8021 34.8136,28.7861 34.8726,28.7691 C34.9756,28.7401 35.0406,28.6781 35.1046,28.5931 C35.1886,28.4811 35.2636,28.3701 35.2916,28.2311 C35.2986,28.2011 35.3066,28.1681 35.3246,28.1441 C35.4136,28.0291 35.4566,27.8901 35.5356,27.7691 C35.6036,27.6631 35.6996,27.5811 35.7606,27.4721 C35.8626,27.2911 36.0306,27.1621 36.1366,26.9851 C36.2006,26.8791 36.2716,26.7781 36.3576,26.6871 C36.3656,26.6781 36.3736,26.6681 36.3786,26.6571 C36.4086,26.6021 36.4546,26.5441 36.4166,26.4831 C36.3766,26.4181 36.3016,26.4361 36.2456,26.4521 C36.1666,26.4731 36.0806,26.4731 36.0156,26.5291 C35.8086,26.5651 35.6506,26.7131 35.4576,26.7831 C35.3316,26.8301 35.0796,26.9911 34.9826,27.1381 C34.9146,27.2421 34.8166,27.2861 34.7026,27.3061 C34.6596,27.3131 34.6186,27.3171 34.5816,27.3491 C34.4696,27.4521 34.3276,27.5081 34.1946,27.5751 C34.0986,27.6241 34.0096,27.6791 33.9336,27.7531 C33.8836,27.8031 33.8266,27.8391 33.7646,27.8701 C33.6856,27.9081 33.6056,27.9441 33.5416,28.0091 C33.5126,28.0381 33.4686,28.0551 33.4286,28.0731 C33.2866,28.1381 33.1476,28.2071 33.0206,28.3011 C32.9556,28.3481 32.8746,28.3721 32.8016,28.4071 C32.6666,28.4721 32.5316,28.5361 32.4216,28.6421 C32.3906,28.6711 32.3476,28.6881 32.3096,28.7091 C32.1686,28.7881 32.0146,28.8361 31.8866,28.9421 C31.8116,29.0041 31.7086,29.0321 31.6156,29.0691 C31.5676,29.0881 31.5226,29.1061 31.4866,29.1431 C31.4746,29.1571 31.4596,29.1711 31.4426,29.1771 C31.3236,29.2201 31.2266,29.2981 31.1226,29.3681 C31.0596,29.4121 30.9936,29.4651 30.9066,29.4721 C30.8766,29.4741 30.8476,29.4941 30.8216,29.5101 C30.6776,29.5961 30.5296,29.6761 30.3976,29.7811 C30.3826,29.7921 30.3686,29.8101 30.3516,29.8131 C30.2006,29.8441 30.0936,29.9591 29.9596,30.0221 C29.8476,30.0751 29.7376,30.1321 29.6236,30.1821 C29.3726,30.2941 29.1326,30.4281 28.9086,30.5871 C28.8936,30.5981 28.8756,30.6121 28.8586,30.6141 C28.7666,30.6231 28.6946,30.6631 28.6366,30.7381 C28.6206,30.7591 28.5806,30.7621 28.5526,30.7741 C28.4336,30.8241 28.3106,30.8641 28.1946,30.9271 C28.0406,31.0111 27.8966,31.1061 27.7496,31.2001 C27.6826,31.2431 27.6006,31.2641 27.5376,31.3171 C27.3906,31.3391 27.3056,31.4871 27.1566,31.5061 C27.0726,31.5911 26.9606,31.6101 26.8536,31.6461 C26.7716,31.6731 26.7006,31.7271 26.6166,31.7541 C26.5386,31.7801 26.4596,31.7981 26.3766,31.7931 C26.3656,31.8131 26.3586,31.8451 26.3416,31.8511 C26.2636,31.8781 26.1956,31.9331 26.1106,31.9411 C26.0986,31.9421 26.0856,31.9431 26.0736,31.9431 C26.0306,32.0331 25.9316,32.0601 25.8546,32.1161 C25.8776,32.2081 25.9416,32.2511 26.0156,32.2661 C26.1546,32.2961 26.2806,32.3691 26.4316,32.3671 C26.5286,32.3651 26.6296,32.3981 26.6946,32.4891 C26.7376,32.5471 26.8036,32.5721 26.8656,32.6021 C26.9106,32.6241 26.9536,32.6511 26.9996,32.6701 C27.1206,32.7201 27.1666,32.8141 27.1646,32.9381 C27.1636,32.9821 27.1596,33.0271 27.1646,33.0701 C27.1786,33.1841 27.1346,33.2721 27.0606,33.3581 C26.9856,33.4451 26.9076,33.4921 26.7886,33.4881 C26.5996,33.4801 26.4186,33.5391 26.2376,33.5901 C26.2196,33.5951 26.1976,33.5971 26.1856,33.6091 C26.0576,33.7341 25.8896,33.7281 25.7306,33.7501 C25.7056,33.7541 25.6796,33.7521 25.6556,33.7581 C25.5486,33.7881 25.4446,33.8411 25.3296,33.7941 C25.1766,33.8451 25.0186,33.8171 24.8626,33.8241 C24.7936,33.8271 24.7246,33.8241 24.6556,33.8251 C24.5616,33.8271 24.4686,33.8241 24.3756,33.8511 C24.3176,33.8671 24.2516,33.8551 24.1886,33.8561 C24.1256,33.8581 24.0626,33.8601 23.9996,33.8611 C23.9796,33.8871 23.9536,33.8991 23.9206,33.8991 C23.8596,33.9001 23.7986,33.8991 23.7376,33.8991 C23.6386,33.9021 23.5456,33.9121 23.4486,33.9551 C23.3436,34.0001 23.2206,34.0181 23.0996,34.0121 C22.9346,34.0051 22.7806,34.0321 22.6276,34.1051 C22.5166,34.1571 22.3886,34.1781 22.2666,34.2011 C22.1296,34.2261 22.0086,34.2941 21.8756,34.3281 C21.8526,34.3341 21.8326,34.3531 21.8136,34.3691 C21.7176,34.4491 21.6366,34.5451 21.5596,34.6431 C21.5296,34.6831 21.5146,34.7331 21.5146,34.7841 C21.5146,34.8471 21.5116,34.9101 21.5136,34.9731 C21.5246,35.2111 21.5026,35.4481 21.4746,35.6831 C21.4716,35.7141 21.4596,35.7431 21.4486,35.7721 C21.4386,35.7941 21.4096,35.8161 21.4126,35.8351 C21.4296,35.9761 21.3176,36.0621 21.2716,36.1751 C21.2536,36.2181 21.2096,36.2521 21.1736,36.2861 C21.0946,36.3651 21.0036,36.4351 20.9816,36.5551 C20.9786,36.5721 20.9676,36.5901 20.9556,36.6041 C20.8416,36.7301 20.7816,36.8911 20.6836,37.0271 C20.5956,37.1491 20.5046,37.2681 20.4166,37.3891 C20.3666,37.4601 20.3136,37.5301 20.2686,37.6031 C20.1906,37.7331 20.1026,37.8531 19.9966,37.9601 C19.9556,38.0011 19.9246,38.0491 19.9076,38.1021 C19.8876,38.1651 19.8586,38.2171 19.7976,38.2471 C19.7876,38.2531 19.7736,38.2621 19.7716,38.2731 C19.7466,38.3921 19.6346,38.4281 19.5576,38.4961 C19.5526,38.5421 19.5276,38.5681 19.4816,38.5731 C19.4856,38.6281 19.4666,38.6771 19.4406,38.7231 C19.4756,38.7721 19.4736,38.7761 19.4066,38.8001 C19.4056,38.8371 19.4046,38.8741 19.4036,38.9101 C19.4146,38.9261 19.4336,38.9401 19.4346,38.9561 C19.4536,39.1681 19.4946,39.3761 19.5236,39.5861 C19.5526,39.7961 19.5386,40.0101 19.5936,40.2171 C19.6356,40.3711 19.7106,40.4891 19.8736,40.5331 C19.9036,40.5411 19.9326,40.5561 19.9566,40.5741 C20.0106,40.6121 20.0646,40.6231 20.1326,40.6151 C20.2316,40.6021 20.2686,40.6461 20.2706,40.7431 C20.2726,40.8241 20.2376,40.9011 20.2536,40.9851 C20.2626,41.0291 20.2166,41.0731 20.1746,41.0781 C19.9796,41.0991 19.8726,41.2371 19.7606,41.3731 C19.7566,41.3771 19.7496,41.3791 19.7246,41.3941 C19.5946,41.3941 19.4456,41.3951 19.2956,41.3961 C19.2076,41.3961 19.1226,41.3991 19.0356,41.4221 C18.9386,41.4471 18.8366,41.4431 18.7376,41.4181 C18.7136,41.4121 18.6886,41.3991 18.6646,41.4011 C18.3896,41.4271 18.1846,41.2511 17.9536,41.1521 C17.9066,41.1321 17.8766,41.0911 17.8646,41.0381 C17.8316,40.8971 17.8036,40.7591 17.8496,40.6131 C17.8696,40.5501 17.8586,40.4761 17.8616,40.4081 C17.8636,40.3641 17.8596,40.3191 17.8876,40.2821 C17.9516,40.1981 17.9656,40.0991 17.9746,40.0001 C17.9816,39.9171 18.0006,39.8381 18.0446,39.7691 C18.0916,39.6961 18.0696,39.6291 18.0466,39.5601 C18.0446,39.5531 18.0236,39.5531 18.0126,39.5501 C17.8806,39.5521 17.7726,39.6141 17.6816,39.6981 C17.6026,39.7701 17.4966,39.8011 17.4276,39.8871 C17.3666,39.9661 17.2886,40.0311 17.2006,40.0811 C17.0336,40.1771 16.8786,40.2951 16.6876,40.3441 C16.6586,40.3511 16.6246,40.3601 16.6026,40.3801 C16.5516,40.4281 16.4916,40.4601 16.4306,40.4931 C16.4146,40.5021 16.3936,40.5111 16.3866,40.5261 C16.3336,40.6391 16.2106,40.6631 16.1246,40.7331 C16.1016,40.7521 16.0706,40.7731 16.0416,40.7751 C15.9016,40.7851 15.8196,40.8771 15.7386,40.9741 C15.7226,40.9941 15.7036,41.0111 15.6846,41.0281 C15.5596,41.1451 15.5686,41.1851 15.3596,41.1731 C15.3146,41.1701 15.2766,41.1911 15.2366,41.2101 C15.1146,41.2691 15.0756,41.2571 14.9996,41.1521 C14.9966,41.1471 14.9906,41.1431 14.9886,41.1371 C14.9426,41.0011 14.8426,40.9661 14.7086,40.9821 C14.6036,40.9941 14.4956,40.9691 14.3906,41.0011 C14.3786,41.0051 14.3656,41.0081 14.3536,41.0061 C14.1176,40.9611 13.8786,40.9891 13.6406,40.9851 C13.5386,40.9831 13.4436,40.9491 13.3456,40.9331 C13.2716,40.9211 13.2176,40.8551 13.1706,40.7981 C13.1286,40.7471 13.1586,40.6421 13.2096,40.5951 C13.2786,40.5341 13.3636,40.5131 13.4496,40.4951 C13.4796,40.4891 13.5106,40.4861 13.5436,40.4801 C13.5706,40.4431 13.6016,40.4101 13.6206,40.3721 C13.6966,40.2241 13.5996,40.0531 13.4346,40.0431 C13.3726,40.0391 13.3096,40.0431 13.2466,40.0421 C13.2026,40.0401 13.1576,40.0421 13.1156,40.0311 C13.0596,40.0171 13.0076,39.9901 13.0056,39.9201 C13.0036,39.8511 12.9636,39.8101 12.9196,39.7621 C12.8176,39.6511 12.7246,39.5341 12.5946,39.4531 C12.5636,39.4341 12.5436,39.3981 12.5186,39.3701 C12.4906,39.3371 12.4696,39.2911 12.4336,39.2721 C12.3146,39.2091 12.2576,39.0961 12.1976,38.9871 C12.1656,38.9301 12.1326,38.8841 12.0646,38.8651 C12.0316,38.8551 12.0026,38.8251 11.9726,38.8031 C11.8146,38.6901 11.6476,38.5971 11.4576,38.5501 C11.3896,38.5321 11.3216,38.5341 11.2526,38.5321 C11.1866,38.5301 11.1256,38.5121 11.0876,38.4571 C10.9906,38.3161 10.8526,38.2341 10.6986,38.1821 C10.6516,38.1401 10.6336,38.0851 10.6076,38.0351 C10.5506,37.9211 10.4716,37.8411 10.3306,37.8531 C10.2796,37.8571 10.2356,37.8341 10.1886,37.8121 C9.9966,37.7231 9.8196,37.6061 9.6286,37.4961 C9.6066,37.2681 9.4366,37.1341 9.2876,36.9951 C9.2706,36.9361 9.2776,36.8871 9.2936,36.8391 C9.3216,36.7591 9.3166,36.6781 9.3076,36.5961 C9.3026,36.5491 9.2726,36.5071 9.2256,36.5081 C9.1096,36.5111 9.0456,36.4351 8.9706,36.3681 C8.8586,36.2701 8.7806,36.1361 8.6436,36.0651 C8.6146,36.0501 8.6046,36.0171 8.5996,35.9851 C8.5946,35.9541 8.5896,35.9241 8.5826,35.8821 C8.4416,35.8671 8.3206,35.7841 8.1716,35.7771 C8.0236,35.7691 7.8616,35.6381 7.7976,35.4991 C7.7686,35.4361 7.7376,35.3871 7.6716,35.3461 C7.6016,35.3031 7.5356,35.2361 7.5416,35.1331 C7.5466,35.0451 7.4836,34.9911 7.4196,34.9561 C7.3026,34.8931 7.2276,34.8011 7.1736,34.6841 C7.1576,34.6501 7.1386,34.6141 7.1106,34.5911 C7.0046,34.5011 7.0136,34.3821 7.0166,34.2611 C7.0176,34.2091 7.0406,34.1691 7.0696,34.1251 C7.1356,34.0291 7.2256,33.9841 7.3376,33.9781 C7.4496,33.9721 7.5606,33.9681 7.6726,33.9621 C7.6906,33.9611 7.7136,33.9621 7.7266,33.9521 C7.8016,33.8881 7.8926,33.9041 7.9786,33.9021 C8.0916,33.8991 8.2036,33.9041 8.3136,33.8711 C8.3726,33.8531 8.4386,33.8631 8.5016,33.8631 C8.6226,33.8631 8.7366,33.8461 8.8406,33.7771 C8.8646,33.7601 8.8986,33.7581 8.9286,33.7511 C9.0086,33.7351 9.0856,33.7121 9.1576,33.6691 C9.2266,33.6281 9.3046,33.5991 9.3886,33.6021 C9.4596,33.6041 9.5266,33.5911 9.5906,33.5641 C9.7496,33.4961 9.9156,33.4791 10.0876,33.4861 C10.1926,33.4901 10.1926,33.4851 10.3066,33.4271 C10.4086,33.4881 10.5266,33.4911 10.6466,33.4871 C10.7156,33.4851 10.7846,33.4861 10.8536,33.4861 C10.8856,33.4871 10.9186,33.4831 10.9476,33.4921 C11.0786,33.5331 11.2136,33.5681 11.3376,33.6241 C11.4616,33.6811 11.5906,33.7301 11.6996,33.8201 C11.7426,33.8541 11.7936,33.8791 11.8286,33.9251 C11.8396,33.9401 11.8516,33.9591 11.8676,33.9641 C11.9696,33.9961 12.0236,34.0871 12.1016,34.1481 C12.1676,34.2001 12.2076,34.2611 12.2306,34.3451 C12.2556,34.4351 12.3016,34.5241 12.3846,34.5761 C12.4776,34.6351 12.4776,34.7321 12.5066,34.8191 C12.5106,34.8291 12.5066,34.8441 12.5026,34.8561 C12.4736,34.9371 12.4316,34.9671 12.3636,34.9321 C12.2886,34.8941 12.2096,34.8871 12.1276,34.8791 C11.9906,34.8651 11.9006,34.9371 11.8226,35.0291 C11.7666,35.0951 11.7256,35.1751 11.6766,35.2481 C11.6556,35.2811 11.6456,35.3161 11.6446,35.3541 C11.6446,35.3981 11.6406,35.4431 11.6456,35.4861 C11.6646,35.6411 11.6896,35.7951 11.6916,35.9521 C11.6916,36.0261 11.7316,36.0891 11.7876,36.1481 C11.8726,36.2401 11.9476,36.3401 12.0496,36.4151 C12.1296,36.4741 12.2206,36.5011 12.3126,36.4911 C12.6116,36.4631 12.8796,36.3561 13.1196,36.1681 C13.2406,36.0731 13.3816,36.0021 13.4796,35.8781 C13.5726,35.8451 13.6316,35.7711 13.7016,35.7091 C13.7876,35.6331 13.7706,35.4371 13.6766,35.3711 C13.6616,35.3611 13.6466,35.3491 13.6316,35.3381 C13.5616,35.2891 13.5116,35.2181 13.4506,35.1401 C13.3826,35.0541 13.3496,34.9561 13.3096,34.8591 C13.2476,34.7091 13.1706,34.5661 13.0396,34.4611 C12.9986,34.4281 12.9786,34.3821 12.9646,34.3331 C12.9386,34.2381 12.8886,34.1651 12.8006,34.1151 C12.7146,34.0661 12.6576,33.9951 12.6646,33.8861 C12.6696,33.8001 12.6266,33.7221 12.5846,33.6571 C12.5076,33.5411 12.5026,33.4101 12.4806,33.2841 C12.4626,33.1811 12.4726,33.0721 12.4796,32.9651 C12.4846,32.8911 12.5046,32.8191 12.5656,32.7641 C12.6446,32.6931 12.7336,32.6841 12.8296,32.7101 C12.8656,32.7201 12.8976,32.7411 12.9336,32.7531 C13.0356,32.7881 13.1306,32.7861 13.2086,32.6981 C13.2516,32.6501 13.3086,32.6231 13.3626,32.5911 C13.4216,32.5541 13.4216,32.5431 13.3756,32.4531 C13.3936,32.4381 13.4116,32.4231 13.4346,32.4021 C13.3786,32.3571 13.3256,32.3151 13.2716,32.2731 C13.2286,32.2401 13.1776,32.2401 13.1276,32.2421 C13.0536,32.2431 13.0016,32.2181 12.9536,32.1551 C12.8976,32.0821 12.8196,32.0271 12.7586,31.9551 C12.7306,31.9221 12.7036,31.8891 12.6766,31.8541 C12.5946,31.7471 12.5626,31.6351 12.6146,31.5041 C12.6356,31.4501 12.6316,31.3911 12.6066,31.3381 C12.5176,31.1541 12.5116,30.9521 12.4716,30.7571 C12.4556,30.6831 12.4326,30.6121 12.4366,30.5351 C12.4366,30.5231 12.4376,30.5081 12.4316,30.4981 C12.3406,30.3561 12.3526,30.1871 12.3096,30.0321 C12.3006,29.9961 12.2926,29.9591 12.2806,29.9241 C12.2636,29.8741 12.1926,29.8551 12.1576,29.8931 C12.1106,29.9441 12.0636,29.9941 12.0596,30.0701 C12.0586,30.1011 12.0496,30.1321 12.0396,30.1611 C12.0276,30.1951 11.9676,30.2031 11.9446,30.1751 C11.8746,30.0911 11.8456,29.9971 11.9076,29.8991 C11.9436,29.8411 11.9476,29.7821 11.9496,29.7191 C11.8966,29.6761 11.8626,29.6151 11.8816,29.5541 C11.9096,29.4631 11.8646,29.3801 11.8756,29.2941 C11.8886,29.2061 11.8196,29.1271 11.8566,29.0361 C11.8916,28.9491 11.8266,28.8661 11.8346,28.7781 C11.8436,28.6911 11.8466,28.6001 11.8316,28.5141 C11.8036,28.3451 11.8496,28.1781 11.8366,28.0111 C11.8356,27.9981 11.8346,27.9841 11.8396,27.9731 C11.9056,27.7971 11.8316,27.6411 11.7656,27.4871 C11.7446,27.4401 11.7196,27.3971 11.7246,27.3451 C11.7346,27.2381 11.6836,27.1511 11.6356,27.0631 C11.6146,27.0251 11.5736,26.9931 11.5776,26.9481 C11.5916,26.7991 11.4926,26.6881 11.4526,26.5571 C11.4276,26.4761 11.3626,26.4351 11.2776,26.4441 C11.1786,26.4541 11.0786,26.4661 10.9816,26.4901 C10.9216,26.5051 10.8786,26.5571 10.8346,26.6021 C10.8136,26.6251 10.8006,26.6561 10.7786,26.6771 C10.6796,26.7671 10.5536,26.7621 10.4606,26.6661 C10.4136,26.6171 10.3796,26.5551 10.3156,26.5211 C10.2946,26.5101 10.2766,26.4901 10.2466,26.5001 C10.2006,26.5291 10.2206,26.5771 10.2126,26.6181 C10.1936,26.7251 10.0896,26.7701 10.0016,26.7071 C9.9766,26.6891 9.9576,26.6631 9.9376,26.6401 C9.8666,26.5611 9.7896,26.4881 9.7026,26.4251 C9.6026,26.3521 9.5066,26.2741 9.4386,26.1621 C9.3926,26.0861 9.3206,26.0201 9.2296,25.9791 C9.1326,25.9351 9.0576,25.8551 8.9786,25.7841 C8.8816,25.6961 8.7906,25.6011 8.6986,25.5071 C8.6496,25.4571 8.5956,25.4141 8.5286,25.3941 C8.4006,25.3561 8.3256,25.2681 8.3006,25.1431 C8.2856,25.0651 8.2436,25.0341 8.1776,24.9971 C8.0686,24.9371 7.9736,24.8531 7.8766,24.7741 C7.8236,24.7301 7.8336,24.6371 7.8946,24.5951 C7.9406,24.5631 7.9866,24.5331 8.0266,24.4911 C8.0716,24.4431 8.0856,24.3831 8.0576,24.3351 C7.9956,24.2291 7.9926,24.1081 7.9556,23.9961 C7.9486,23.9731 7.9476,23.9391 7.9316,23.9281 C7.8496,23.8691 7.8416,23.7851 7.8346,23.6961 C7.8306,23.6451 7.7986,23.6031 7.7546,23.5731 C7.7026,23.5361 7.6496,23.4931 7.6606,23.4221 C7.6726,23.3431 7.6886,23.2611 7.7546,23.2021 C7.8256,23.1411 7.8966,23.0791 7.9936,23.0591 C8.0546,23.0471 8.0866,23.0101 8.1106,22.9511 C8.1426,22.8781 8.1886,22.8101 8.2306,22.7411 C8.2556,22.6991 8.2646,22.6611 8.2296,22.6211 C8.1936,22.6101 8.1716,22.6331 8.1476,22.6531 C8.1096,22.6851 8.0826,22.7311 8.0296,22.7431 C8.0106,22.7471 7.9906,22.7461 7.9786,22.7281 C7.9736,22.7191 7.9706,22.7011 7.9756,22.6941 C8.0456,22.5851 8.0996,22.4641 8.2306,22.4031 C8.2956,22.3731 8.3466,22.3111 8.3916,22.2741 C8.4046,22.2291 8.3916,22.2081 8.3746,22.1891 C8.2646,22.0581 8.2946,21.9181 8.3626,21.7861 C8.3886,21.7371 8.4156,21.6881 8.4386,21.6371 C8.4996,21.5001 8.5796,21.3741 8.6616,21.2501 C8.7336,21.1391 8.7926,21.1141 8.9106,21.1451 C8.9646,21.1601 9.0166,21.1841 9.0666,21.2091 C9.1616,21.2551 9.1606,21.2501 9.2396,21.1731 C9.3686,21.0481 9.4336,20.8821 9.5226,20.7321 C9.5506,20.6831 9.5466,20.6221 9.5046,20.5731 C9.4966,20.5641 9.4856,20.5561 9.4786,20.5461 C9.4356,20.4731 9.3656,20.4351 9.2976,20.3891 C9.2326,20.3461 9.1906,20.2791 9.1026,20.2541 C9.0226,20.2311 8.9546,20.1651 8.8786,20.1231 C8.6326,19.9861 8.6096,19.9791 8.3626,19.9481 C8.3216,19.8351 8.2646,19.7251 8.1776,19.6341 C8.1606,19.6161 8.1456,19.5941 8.1376,19.5701 C8.0976,19.4581 8.0136,19.3851 7.9246,19.3141 C7.8856,19.2831 7.8436,19.2551 7.8216,19.2071 C7.8036,19.1671 7.7866,19.1291 7.7926,19.0821 C7.8106,18.9571 7.8156,18.8321 7.7856,18.7081 C7.7816,18.6911 7.7826,18.6661 7.7926,18.6541 C7.8506,18.5851 7.8416,18.5021 7.8456,18.4211 C7.8466,18.3901 7.8486,18.3521 7.8656,18.3321 C7.9226,18.2681 7.9216,18.1931 7.9166,18.1181 C7.9086,17.9781 7.9326,17.8431 7.9736,17.7111 C7.9946,17.6431 7.9966,17.5751 7.9936,17.5061 C7.9886,17.3811 7.9086,17.3021 7.7796,17.2911 C7.7476,17.2881 7.7156,17.2921 7.6846,17.2871 C7.6156,17.2761 7.5506,17.2511 7.5116,17.1871 C7.4786,17.1321 7.4366,17.0871 7.3796,17.0561 C7.3396,17.0331 7.3146,16.9961 7.3016,16.9541 C7.2746,16.8651 7.2646,16.7711 7.2056,16.6941 C7.1826,16.5091 7.1116,16.3301 7.1266,16.1381 C7.1306,16.0811 7.1086,16.0311 7.0836,15.9781 C7.0456,15.8941 7.0156,15.8071 7.0436,15.7081 C7.0586,15.6551 7.0526,15.5961 7.0526,15.5391 C7.0536,15.3831 7.0526,15.2251 7.0526,15.0691 C7.0526,14.9871 7.0476,14.9071 7.1036,14.8351 C7.1356,14.7941 7.1296,14.7391 7.1256,14.6891 C7.1146,14.5431 7.1416,14.4021 7.1696,14.2611 C7.1876,14.1751 7.2096,14.0901 7.2046,14.0011 C7.2036,13.9831 7.2036,13.9591 7.2126,13.9461 C7.3156,13.8181 7.2706,13.6571 7.3096,13.5141 C7.3416,13.4011 7.3416,13.2801 7.3566,13.1621 C7.3596,13.1381 7.3666,13.1131 7.3776,13.0911 C7.4506,12.9521 7.5016,12.8101 7.5116,12.6491 C7.5176,12.5571 7.5456,12.4651 7.5446,12.3711 C7.5436,12.3651 7.5446,12.3581 7.5456,12.3521 C7.5546,12.2711 7.6326,12.2131 7.6176,12.1231 C7.6056,12.0461 7.6356,11.9741 7.6616,11.9041 C7.6826,11.8441 7.6946,11.7831 7.6936,11.7201 C7.6916,11.6571 7.6776,11.6081 7.6046,11.5981 C7.5626,11.5931 7.5446,11.5581 7.5236,11.5261 C7.4746,11.4481 7.4446,11.3541 7.3716,11.2941 C7.3046,11.2391 7.2086,11.2311 7.1406,11.1711 C7.1246,11.1561 7.0946,11.1551 7.0696,11.1511 C7.0086,11.1421 6.9466,11.1351 6.8776,11.1261 C6.7946,11.1951 6.7026,11.2591 6.6316,11.3481 C6.6206,11.3631 6.6076,11.3781 6.5926,11.3881 C6.5496,11.4211 6.4706,11.4161 6.4386,11.3721 C6.3906,11.3071 6.3436,11.2411 6.3206,11.1601 C6.2876,11.0441 6.2026,10.9701 6.0976,10.9191 C6.0196,10.8811 5.9406,10.8441 5.8596,10.8101 C5.7066,10.7461 5.5676,10.6671 5.4976,10.5061 C5.3946,10.4451 5.3786,10.3151 5.2886,10.2441 C5.2696,10.2301 5.2506,10.2031 5.2506,10.1821 C5.2536,10.0261 5.1556,9.9151 5.0766,9.7971 C5.0426,9.7481 5.0176,9.7031 5.0176,9.6441 C5.0186,9.5981 5.0066,9.5581 4.9746,9.5231 C4.9586,9.5061 4.9476,9.4791 4.9466,9.4551 C4.9396,9.3371 4.8766,9.2401 4.8216,9.1431 C4.7436,9.0061 4.6726,8.8691 4.6756,8.7051 C4.6766,8.6811 4.6696,8.6531 4.6566,8.6341 C4.6006,8.5551 4.5636,8.4711 4.5586,8.3731 C4.5576,8.3491 4.5476,8.3211 4.5326,8.3041 C4.4396,8.2061 4.4186,8.0681 4.3386,7.9631 C4.3236,7.9441 4.3126,7.9191 4.3086,7.8951 C4.2856,7.7511 4.2236,7.6241 4.1546,7.4981 C4.1396,7.4711 4.1266,7.4421 4.1186,7.4111 C4.0746,7.2341 3.9776,7.0771 3.9226,6.9051 C3.8306,6.8031 3.8176,6.6691 3.7776,6.5471 C3.7666,6.5111 3.7446,6.4801 3.7266,6.4471 C3.7006,6.3971 3.6596,6.3501 3.6506,6.2971 C3.6276,6.1731 3.5506,6.0871 3.4626,5.9911 C3.3516,5.9911 3.2336,5.9901 3.1146,5.9911 C3.0966,5.9911 3.0726,5.9911 3.0596,6.0021 C2.9446,6.1001 2.7936,6.0531 2.6656,6.0981 C2.6376,6.1081 2.6036,6.1021 2.5726,6.1011 C2.4996,6.0971 2.4366,6.1071 2.3906,6.1741 C2.3686,6.2061 2.3276,6.2161 2.2886,6.2131 C2.1926,6.2061 2.1036,6.2391 2.0146,6.2661 C1.9726,6.2791 1.9286,6.2831 1.8856,6.2911 C1.8616,6.2961 1.8296,6.2911 1.8136,6.3051 C1.7036,6.4011 1.5736,6.3531 1.4526,6.3631 C1.4346,6.3651 1.4106,6.3641 1.3976,6.3531 C1.2866,6.2721 1.1586,6.2941 1.0346,6.2911 C1.0026,6.2901 0.9716,6.2891 0.9406,6.2851 C0.9066,6.2801 0.8796,6.2561 0.8806,6.2231 C0.8856,6.0531 0.8256,5.8901 0.8346,5.7191 C0.8446,5.5501 0.8376,5.3801 0.8376,5.2101 C0.8376,5.1791 0.8306,5.1451 0.8406,5.1161 C0.8926,4.9641 0.8716,4.8061 0.8756,4.6501 C0.8766,4.5751 0.8756,4.5001 0.8976,4.4261 C0.9126,4.3801 0.9116,4.3271 0.9116,4.2771 C0.9136,4.0951 0.9136,3.9131 0.9136,3.7311 C0.9136,3.6941 0.9076,3.6551 0.9146,3.6181 C0.9396,3.4921 0.9316,3.3711 0.8856,3.2511 C0.8746,3.2211 0.8706,3.1831 0.8916,3.1601 C0.9456,3.1021 0.9356,3.0441 0.9236,2.9711 C0.9026,2.8421 0.8996,2.7081 0.9286,2.5781 C0.9396,2.5271 0.9456,2.4811 0.9266,2.4311 C0.9066,2.3811 0.9186,2.3351 0.9556,2.2931 C0.9966,2.2451 0.9946,2.1891 0.9706,2.1341 C0.9636,2.1171 0.9436,2.0931 0.9486,2.0871 C1.0086,2.0091 0.9666,1.9131 0.9966,1.8331 C1.0226,1.7641 1.0676,1.7031 1.0836,1.6291 C1.2146,1.4791 1.2726,1.2721 1.4496,1.1581 C1.4916,1.0571 1.6006,1.0111 1.6486,0.9131 C1.6696,0.8711 1.7176,0.8411 1.7546,0.8081 C1.7816,0.7831 1.8226,0.7671 1.8396,0.7371 C1.8976,0.6351 1.9976,0.6221 2.0966,0.6051 C2.4066,0.5521 2.7206,0.5691 3.0336,0.5651 C3.1546,0.5641 3.2686,0.5971 3.3846,0.6211 C3.4926,0.6431 3.6126,0.6441 3.6926,0.7401 C3.6966,0.7441 3.7096,0.7471 3.7096,0.7471 C3.8856,0.7601 3.9996,0.8861 4.1276,0.9821 C4.2586,1.0801 4.3946,1.1671 4.5426,1.2341 C4.6176,1.2681 4.6836,1.3121 4.7466,1.3661 C4.8306,1.4391 4.9216,1.5081 5.0186,1.5631 C5.3036,1.7241 5.5516,1.9341 5.8006,2.1421 C5.8196,2.1571 5.8386,2.1751 5.8536,2.1951 C5.9256,2.2931 6.0176,2.3621 6.1216,2.4261 C6.2636,2.5141 6.3936,2.6261 6.5226,2.7341 C6.5906,2.7891 6.6456,2.8591 6.7286,2.8951 C6.7586,2.9081 6.7746,2.9351 6.7886,2.9651 C6.8006,2.9931 6.8146,3.0311 6.8376,3.0411 C6.9286,3.0821 6.9706,3.1661 7.0326,3.2331 C7.0906,3.2961 7.1616,3.3501 7.2366,3.3971 C7.2766,3.4221 7.3096,3.4681 7.3306,3.5121 C7.4156,3.6891 7.5456,3.8321 7.6746,3.9751 C7.7576,4.0681 7.8146,4.1831 7.9226,4.2541 C7.9676,4.4101 8.1266,4.4841 8.1876,4.6351 C8.2256,4.7291 8.3036,4.8101 8.3596,4.9011 C8.4066,4.9781 8.4486,5.0521 8.4446,5.1441 C8.4426,5.1901 8.4586,5.2301 8.4906,5.2641 C8.5876,5.3651 8.6516,5.4841 8.6796,5.6221 C8.6836,5.6401 8.6906,5.6591 8.7016,5.6741 C8.8026,5.8281 8.8486,6.0041 8.9036,6.1771 C8.9186,6.2231 8.9406,6.2721 8.9726,6.3081 C9.0776,6.4281 9.0996,6.5801 9.1386,6.7231 C9.1566,6.7891 9.1286,6.8711 9.1096,6.9431 C9.0946,7.0001 9.0906,7.0511 9.1096,7.1081 C9.1306,7.1681 9.1256,7.2311 9.1086,7.2931 C9.0546,7.4821 9.0286,7.6751 9.0486,7.8691 C9.0626,8.0151 9.0026,8.1141 8.8776,8.1701 C8.7896,8.2091 8.7746,8.2741 8.7856,8.3521 C8.7926,8.4071 8.8006,8.4711 8.8326,8.5121 C8.9336,8.6441 8.9766,8.8021 9.0576,8.9421 C9.0916,9.0021 9.1176,9.0661 9.1546,9.1241 C9.2536,9.2821 9.2916,9.4581 9.3116,9.6401 C9.3156,9.6771 9.3136,9.7211 9.3336,9.7481 C9.3936,9.8261 9.3896,9.9141 9.3836,10.0011 C9.3716,10.1841 9.4076,10.3631 9.4416,10.5401 C9.4716,10.7031 9.4716,10.8651 9.4426,11.0261 C9.4306,11.0951 9.4286,11.1591 9.4416,11.2291 C9.4796,11.4291 9.4806,11.6281 9.3826,11.8151 C9.3706,11.8371 9.3626,11.8651 9.3446,11.8781 C9.2246,11.9611 9.2196,12.0861 9.2176,12.2121 C9.2176,12.2401 9.2146,12.2611 9.1926,12.2781 C9.1056,12.3461 9.0906,12.4471 9.0856,12.5471 C9.0806,12.6411 9.0396,12.7151 8.9826,12.7841 C8.9756,12.7941 8.9676,12.8041 8.9596,12.8141 C8.9266,12.8531 8.8576,12.8331 8.8326,12.8861 C8.8126,12.9301 8.8146,12.9851 8.7736,13.0211 C8.7036,13.0851 8.6966,13.1591 8.7316,13.2441 C8.7446,13.2741 8.7376,13.3051 8.7216,13.3341 C8.6696,13.4271 8.6166,13.5191 8.5676,13.6131 C8.5396,13.6671 8.4856,13.6891 8.4456,13.7291 C8.3406,13.8331 8.2326,13.9341 8.1276,14.0391 C8.0226,14.1431 7.9506,14.2621 7.9536,14.4171 C7.9566,14.6061 7.9256,14.7891 7.8596,14.9681 C7.8256,15.0621 7.8296,15.1661 7.8646,15.2631 C7.8796,15.3041 7.8966,15.3441 7.9116,15.3821 C7.8386,15.5011 7.8106,15.6291 7.8056,15.7601 C7.7996,15.8851 7.7966,16.0111 7.8056,16.1361 C7.8136,16.2591 7.8266,16.3831 7.8996,16.4921 C7.9376,16.5481 7.9556,16.6181 7.9536,16.6891 C7.9516,16.7541 7.9766,16.8121 8.0016,16.8691 C8.0126,16.8941 8.0346,16.9061 8.0606,16.9081 C8.0946,16.9111 8.1236,16.9011 8.1376,16.8681 C8.2016,16.7201 8.2976,16.5871 8.3096,16.4151 C8.3146,16.3451 8.3266,16.2651 8.3776,16.2031 C8.4026,16.1731 8.4026,16.1341 8.4076,16.0961 C8.4306,15.9481 8.4576,15.8031 8.5326,15.6671 C8.5806,15.5811 8.6016,15.4801 8.6356,15.3861 C8.6416,15.3691 8.6506,15.3521 8.6596,15.3361 C8.6756,15.3081 8.7166,15.3011 8.7426,15.3181 C8.7856,15.3481 8.8156,15.3881 8.8186,15.4421 C8.8206,15.5051 8.8236,15.5681 8.8176,15.6301 C8.8066,15.7481 8.7976,15.8671 8.7706,15.9831 C8.7516,16.0641 8.7466,16.1431 8.7456,16.2241 C8.7436,16.3121 8.7316,16.3991 8.7256,16.4861 C8.7166,16.6081 8.7256,16.7361 8.7526,16.8561 C8.7796,16.9741 8.7826,17.0911 8.7836,17.2101 L8.7836,17.3371 C8.8116,17.3991 8.8516,17.4041 8.8856,17.4191 C8.9566,17.4511 9.0236,17.5011 9.0466,17.5701 C9.0896,17.6941 9.1856,17.7451 9.2926,17.7751 C9.4016,17.8041 9.4386,17.9061 9.5176,17.9641 C9.5396,17.9801 9.5336,18.0341 9.5376,18.0711 C9.5456,18.1511 9.5666,18.2201 9.6606,18.2351 C9.7586,18.3201 9.8796,18.3901 9.9286,18.5131 C9.9696,18.6161 9.9676,18.7341 9.9266,18.8441 C9.9006,18.9151 9.8696,18.9831 9.8476,19.0551 C9.8256,19.1251 9.8406,19.1881 9.8906,19.2471 C10.0306,19.4111 10.0296,19.4131 10.2396,19.3741 C10.3086,19.3611 10.3746,19.3671 10.4436,19.3821 C10.5226,19.3981 10.5976,19.4381 10.6826,19.4191 C10.6976,19.4161 10.7226,19.4231 10.7326,19.4341 C10.7936,19.5001 10.8746,19.5041 10.9556,19.5191 C11.0286,19.5321 11.1026,19.5531 11.1596,19.6091 C11.1856,19.6361 11.2186,19.6621 11.2576,19.6581 C11.3726,19.6481 11.4516,19.7371 11.5526,19.7621 C11.5746,19.7671 11.5906,19.7941 11.6086,19.8111 C11.6466,19.8131 11.6846,19.8141 11.7216,19.8161 C11.7906,19.8191 11.8076,19.8781 11.8356,19.9241 C11.9176,19.9251 11.9986,19.9231 12.0806,19.9261 C12.1486,19.9281 12.1996,19.9021 12.2466,19.8541 C12.3146,19.7821 12.3616,19.6901 12.4436,19.6291 C12.4566,19.6191 12.4636,19.5971 12.4676,19.5791 C12.4976,19.4601 12.4146,19.3411 12.2906,19.3241 C12.2596,19.3191 12.2276,19.3231 12.1906,19.2911 C12.1756,19.2381 12.1526,19.1731 12.1416,19.1061 C12.1326,19.0551 12.1236,19.0101 12.0886,18.9691 C12.0516,18.9251 12.0586,18.8721 12.0916,18.8301 C12.1646,18.7371 12.1846,18.6091 12.2916,18.5381 C12.3176,18.5211 12.3226,18.4851 12.3236,18.4531 C12.3246,18.4031 12.3256,18.3521 12.3256,18.3021 C12.3246,18.2341 12.3436,18.1781 12.4166,18.1561 C12.4276,18.1521 12.4466,18.1451 12.4476,18.1371 C12.4606,18.0271 12.5696,17.9711 12.5956,17.8651 C12.6296,17.7211 12.6356,17.7231 12.7416,17.6011 C12.7726,17.5981 12.8106,17.5971 12.8476,17.5901 C12.8766,17.5841 12.9156,17.5791 12.9326,17.5591 C13.0026,17.4731 13.1116,17.4181 13.1346,17.2961 C13.1426,17.2601 13.1646,17.2271 13.1826,17.1871 C13.1746,17.1671 13.1666,17.1441 13.1566,17.1221 C13.1076,17.0231 13.1336,16.9391 13.2216,16.8841 C13.3446,16.8061 13.4786,16.7931 13.6186,16.8031 C13.6366,16.8041 13.6586,16.8021 13.6736,16.8111 C13.8326,16.9021 14.0096,16.9411 14.1826,16.9941 C14.1946,16.9981 14.2116,17.0021 14.2146,17.0111 C14.2466,17.0911 14.3216,17.1261 14.3806,17.1781 C14.4016,17.1981 14.3966,17.2401 14.3746,17.2661 C14.3396,17.3091 14.3006,17.3511 14.2636,17.3921 C14.2466,17.4101 14.2286,17.4271 14.2166,17.4391 C14.2076,17.5581 14.2916,17.6031 14.3656,17.6451 C14.4886,17.7151 14.6156,17.7291 14.7276,17.6171 C14.7816,17.5641 14.8546,17.5371 14.8986,17.4711 C14.9166,17.4441 14.9526,17.4411 14.9846,17.4501 C15.0196,17.4611 15.0306,17.4901 15.0326,17.5231 C15.0356,17.5741 15.0296,17.6181 15.0006,17.6651 C14.9506,17.7441 14.9706,17.7751 15.0636,17.7791 C15.1516,17.7821 15.2396,17.7821 15.3276,17.7811 C15.4506,17.7791 15.5156,17.8661 15.5826,17.9481 C15.6036,17.9731 15.5946,18.0081 15.5836,18.0381 C15.5616,18.0991 15.5586,18.1611 15.5726,18.2231 C15.5796,18.2531 15.6236,18.2711 15.6486,18.2531 C15.6736,18.2351 15.6956,18.2111 15.7216,18.1951 C15.8086,18.1391 15.8536,18.1521 15.8996,18.2431 C15.9136,18.2701 15.9246,18.3011 15.9426,18.3251 C15.9776,18.3751 16.0236,18.3841 16.0736,18.3521 C16.1096,18.3291 16.1426,18.3011 16.1776,18.2751 C16.2466,18.2971 16.3146,18.3401 16.3756,18.3331 C16.4526,18.3241 16.5246,18.2741 16.5986,18.2401 C16.6156,18.2331 16.6386,18.2271 16.6466,18.2131 C16.7356,18.0721 16.9176,18.0621 17.0236,17.9441 C17.0466,17.9181 17.0886,17.9071 17.1236,17.8961 C17.1606,17.8841 17.1916,17.8651 17.2156,17.8341 C17.2266,17.8191 17.2396,17.7981 17.2536,17.7951 C17.3956,17.7691 17.4916,17.6671 17.6006,17.5861 C17.6056,17.5831 17.6126,17.5821 17.6166,17.5781 C17.6626,17.5361 17.7016,17.4811 17.7556,17.4551 C17.8096,17.4281 17.8796,17.4261 17.9286,17.3871 C18.0166,17.3201 18.1236,17.2701 18.1676,17.1571 C18.1746,17.1391 18.1846,17.1231 18.1966,17.1091 C18.3496,16.9431 18.3676,16.7401 18.3516,16.5291 C18.3506,16.5041 18.3516,16.4721 18.3366,16.4571 C18.2726,16.3901 18.2816,16.3091 18.2746,16.2271 C18.2656,16.1221 18.2276,16.0281 18.1746,15.9321 C18.0896,15.7821 17.9656,15.6661 17.8776,15.5221 C17.8646,15.5011 17.8476,15.4791 17.8276,15.4671 C17.7366,15.4111 17.7006,15.3151 17.6456,15.2331 C17.6026,15.1671 17.5836,15.0941 17.6096,15.0171 C17.6306,14.9561 17.6406,14.8971 17.6166,14.8341 C17.6006,14.7951 17.6196,14.7601 17.6376,14.7271 C17.6686,14.6741 17.7026,14.6211 17.7406,14.5591 C17.8096,14.5271 17.8926,14.5441 17.9726,14.5421 C18.0546,14.5401 18.1336,14.5381 18.2056,14.5931 C18.2526,14.6281 18.3146,14.6151 18.3716,14.6141 C18.4106,14.6141 18.4426,14.6001 18.4696,14.5691 C18.5106,14.5221 18.5586,14.4811 18.5976,14.4321 C18.6406,14.3801 18.6916,14.3511 18.7596,14.3541 C18.7716,14.3541 18.7846,14.3521 18.7966,14.3531 C18.9716,14.3731 19.1296,14.3331 19.2706,14.2271 C19.4336,14.1911 19.5926,14.1361 19.7536,14.2461 C19.8296,14.2981 19.9096,14.3521 20.0076,14.3611 C20.1196,14.4441 20.2546,14.4741 20.3806,14.5271 C20.4256,14.5461 20.4666,14.5781 20.5056,14.6101 C20.5886,14.6761 20.6826,14.6991 20.7876,14.6931 C20.8496,14.6891 20.9126,14.6931 20.9756,14.6931 C21.0136,14.6931 21.0546,14.6901 21.0826,14.7181 C21.1396,14.7721 21.2086,14.7671 21.2776,14.7671 C21.3836,14.7671 21.4906,14.7661 21.5976,14.7661 C21.6786,14.7661 21.7586,14.7661 21.8306,14.7131 C21.8636,14.6891 21.9136,14.6881 21.9556,14.6781 C22.1256,14.6341 22.2776,14.5441 22.4426,14.4881 C22.4596,14.4821 22.4786,14.4741 22.4926,14.4621 C22.6106,14.3531 22.7626,14.3401 22.9096,14.3171 C22.9916,14.3031 23.0716,14.2921 23.1366,14.2381 C23.1796,14.2011 23.2336,14.2151 23.2776,14.1961 C23.3936,14.1431 23.5146,14.1171 23.6426,14.1251 C23.6816,14.1271 23.7136,14.1101 23.7426,14.0821 C23.8066,14.0221 23.8856,14.0111 23.9696,14.0121 C24.0766,14.0141 24.1826,14.0181 24.2866,13.9801 C24.3276,13.9661 24.3686,13.9561 24.4076,13.9331 C24.4446,13.9111 24.4866,13.8881 24.5286,13.8851 C24.7076,13.8691 24.8576,13.7701 25.0226,13.7181 C25.0916,13.6961 25.1436,13.6511 25.2016,13.6151 C25.2506,13.5851 25.2976,13.5581 25.3576,13.5611 C25.4706,13.4331 25.6356,13.3801 25.7666,13.2771 C25.8166,13.2381 25.8886,13.2161 25.9596,13.2291 C25.9986,13.2281 26.0366,13.2271 26.0756,13.2261 C26.1286,13.1581 26.2156,13.1871 26.2846,13.1601 C26.3526,13.1331 26.4016,13.0601 26.4856,13.0711 C26.4976,13.0721 26.5106,13.0701 26.5236,13.0701 C26.5306,13.0531 26.5356,13.0261 26.5476,13.0221 C26.6336,12.9921 26.7166,12.9461 26.8146,12.9741 C26.9376,13.0101 27.0506,13.0091 27.1696,12.9371 C27.2466,12.8911 27.3376,12.8781 27.4056,12.8021 C27.4656,12.7361 27.5556,12.6991 27.6286,12.6421 C27.7306,12.5631 27.8456,12.5021 27.9586,12.4391 C27.9886,12.4231 28.0316,12.4311 28.0686,12.4281 C28.0806,12.4281 28.0916,12.4271 28.1026,12.4251 C28.1756,12.3411 28.2716,12.3051 28.3766,12.2821 C28.4786,12.2601 28.5806,12.2341 28.6836,12.2101 C28.7196,12.2021 28.7566,12.1961 28.7846,12.1691 C28.8086,12.1471 28.8366,12.1341 28.8686,12.1341 C28.9496,12.1341 29.0286,12.1221 29.1066,12.0981 C29.1176,12.0941 29.1316,12.0931 29.1436,12.0951 C29.2646,12.1111 29.3866,12.1191 29.5036,12.1601 C29.5316,12.1611 29.5556,12.1541 29.5706,12.1291 C29.5736,12.0281 29.6206,11.9501 29.6946,11.8861 C29.7236,11.8621 29.7516,11.8381 29.7756,11.8101 C29.8066,11.7741 29.8436,11.7551 29.8906,11.7561 C30.0276,11.7571 30.1596,11.6991 30.2986,11.7141 C30.3046,11.7151 30.3106,11.7141 30.3176,11.7131 C30.3356,11.7091 30.3596,11.7111 30.3706,11.6991 C30.4556,11.6081 30.6006,11.6391 30.6826,11.5441 C30.7086,11.5141 30.7396,11.4921 30.7786,11.4941 C31.0036,11.5021 31.2246,11.4301 31.4506,11.4531 C31.4936,11.4571 31.5386,11.4501 31.5726,11.4861 C31.5856,11.4871 31.5986,11.4871 31.6106,11.4871 C31.6986,11.4561 31.7496,11.3591 31.8516,11.3571 C31.9736,11.2681 32.1196,11.2531 32.2586,11.2301 C32.4456,11.2001 32.6206,11.1331 32.8046,11.0971 C32.8286,11.0931 32.8516,11.0781 32.8726,11.0641 C33.0016,10.9731 33.1476,10.9211 33.3026,10.8971 C33.3716,10.8861 33.4296,10.8581 33.4916,10.8271 C33.6086,10.7681 33.7346,10.7271 33.8716,10.7351 C33.9526,10.7401 34.0266,10.7211 34.1046,10.6871 C34.2546,10.6231 34.4126,10.5981 34.5806,10.6511 C34.7896,10.7181 35.0046,10.7591 35.2266,10.7381 C35.2836,10.7321 35.3396,10.7361 35.3846,10.6921 C35.4186,10.6581 35.4656,10.6611 35.5096,10.6621 C35.5856,10.6631 35.6596,10.6561 35.7276,10.6181 C35.7906,10.5831 35.8606,10.5851 35.9296,10.5851 C36.0986,10.5861 36.2686,10.5861 36.4376,10.5841 C36.4746,10.5841 36.5226,10.5881 36.5456,10.5681 C36.6216,10.5021 36.7096,10.5201 36.7946,10.5081 C36.9126,10.4921 37.0276,10.4641 37.1446,10.4431 C37.2066,10.4321 37.2666,10.4191 37.3056,10.3601 C37.3146,10.3461 37.3346,10.3331 37.3516,10.3311 C37.4386,10.3201 37.4986,10.2641 37.5596,10.2111 C37.6026,10.1731 37.6506,10.1641 37.6996,10.1791 C37.8476,10.2251 37.9926,10.2101 38.1426,10.1811 C38.2636,10.1581 38.3926,10.1681 38.5176,10.1731 C38.6636,10.1791 38.8016,10.1331 38.9446,10.1161 C38.9926,10.1111 39.0406,10.0871 39.0826,10.0611 C39.1296,10.0321 39.1716,10.0321 39.2246,10.0411 C39.3916,10.0711 39.5596,10.0761 39.7266,10.0341 C39.7506,10.0291 39.7766,10.0211 39.8006,10.0231 C39.9646,10.0401 40.1226,9.9791 40.2866,9.9831 C40.3166,9.9841 40.3476,9.9751 40.3776,9.9671 C40.4986,9.9331 40.6196,9.9071 40.7476,9.9071 C40.8326,9.9061 40.9156,9.8711 41.0046,9.8661 C41.1286,9.8601 41.2506,9.8431 41.3746,9.8681 C41.4226,9.8781 41.4786,9.8801 41.5246,9.8661 C41.6596,9.8241 41.7966,9.8351 41.9346,9.8331 C41.9846,9.8321 42.0376,9.8371 42.0806,9.8111 C42.1726,9.7571 42.2726,9.7571 42.3726,9.7591 C42.4236,9.7601 42.4736,9.7591 42.5236,9.7591 C42.5486,9.7591 42.5746,9.7621 42.5986,9.7601 C42.6846,9.7501 42.7476,9.8791 42.8406,9.8031 C42.9106,9.7461 42.9976,9.7661 43.0736,9.7371 C43.1326,9.7131 43.1976,9.7181 43.2596,9.7261 C43.2826,9.7291 43.3016,9.7481 43.3236,9.7591 L43.4006,9.7591 C43.4736,9.7111 43.4756,9.7111 43.5486,9.7591 L43.5876,9.7591 C43.7746,9.7281 43.9596,9.7451 44.1426,9.7871 C44.2836,9.8201 44.4236,9.8391 44.5696,9.8341 C44.6686,9.8301 44.7666,9.8351 44.8666,9.8601 C44.9696,9.8851 45.0816,9.8881 45.1826,9.8561 C45.2946,9.8211 45.3956,9.8411 45.4916,9.8881 C45.5456,9.9151 45.5936,9.9181 45.6506,9.9131 C45.7496,9.9061 45.8486,9.8901 45.9476,9.8801 C46.1196,9.8631 46.2946,9.8571 46.4696,9.8931 C46.5706,9.9141 46.6716,9.9591 46.7826,9.9261 C46.8196,9.9141 46.8696,9.9351 46.9106,9.9491 C47.0066,9.9821 47.1056,9.9861 47.2056,9.9841 C47.2756,9.9831 47.3426,9.9871 47.4106,10.0061 C47.4636,10.0211 47.5216,10.0221 47.5786,10.0201 C47.7136,10.0141 47.8396,10.0481 47.9526,10.1191 C48.0146,10.1591 48.0766,10.1761 48.1466,10.1721 C48.3326,10.1621 48.5226,10.1971 48.7066,10.1441 C48.7236,10.1401 48.7466,10.1401 48.7616,10.1471 C48.8306,10.1751 48.8946,10.1711 48.9626,10.1441 C49.0126,10.1251 49.0616,10.1371 49.0936,10.1871 C49.1376,10.2571 49.2046,10.2731 49.2826,10.2891 C49.4556,10.3251 49.6296,10.3221 49.8046,10.3231 C49.8686,10.3241 49.9296,10.3191 49.9876,10.2871 C50.0376,10.2601 50.0916,10.2481 50.1496,10.2481 C50.2616,10.2501 50.3746,10.2501 50.4876,10.2491 C50.5396,10.2481 50.5856,10.2631 50.6316,10.2861 C50.6566,10.2851 50.6816,10.2841 50.7056,10.2831 C50.7196,10.2071 50.7806,10.1871 50.8426,10.1781 C50.8926,10.1701 50.9436,10.1731 50.9936,10.1721 C51.0486,10.1711 51.1066,10.1671 51.1626,10.1721 C51.2316,10.1781 51.2986,10.1111 51.3616,10.1511 C51.4546,10.2121 51.5516,10.2771 51.6186,10.3631 C51.7416,10.5221 51.8856,10.6581 52.0286,10.7971 C52.0956,10.8631 52.1606,10.9321 52.2336,10.9901 C52.2856,11.0311 52.3126,11.0891 52.3406,11.1391 C52.3946,11.2331 52.4636,11.3111 52.5306,11.3941 C52.5886,11.4661 52.6526,11.5371 52.6666,11.6361 C52.7186,11.6381 52.7646,11.6511 52.7896,11.7041 C52.8176,11.7681 52.8696,11.8151 52.9086,11.8701 C52.9976,11.9961 53.0796,12.1281 53.1596,12.2611 C53.1916,12.3141 53.2116,12.3751 53.1596,12.4331 C53.1596,12.4681 53.1586,12.5031 53.1586,12.5381 C53.1676,12.5451 53.1786,12.5511 53.1886,12.5581 C53.2896,12.6371 53.2896,12.6781 53.1906,12.7691 L53.1906,12.8461 C53.3026,12.8981 53.3256,13.0061 53.3386,13.1101 C53.3506,13.1961 53.3596,13.2761 53.3976,13.3591 C53.4386,13.4471 53.4396,13.5551 53.3816,13.6461 C53.3456,13.7031 53.3446,13.7631 53.3416,13.8241 L53.3416,13.9381 C53.3506,14.0041 53.3156,14.0571 53.2926,14.1151 C53.2446,14.2371 53.2576,14.2901 53.3556,14.3781 C53.3826,14.4031 53.4096,14.4291 53.4336,14.4561 C53.5266,14.5561 53.5436,14.5581 53.6496,14.4811 C53.6946,14.4481 53.7426,14.4171 53.7866,14.3831 C53.8246,14.3541 53.8676,14.3541 53.9106,14.3531 C53.9146,14.3041 53.9436,14.2811 53.9906,14.2811 C54.0136,14.2811 54.0366,14.2821 54.0596,14.2841 C54.0976,14.2831 54.1356,14.2821 54.1736,14.2821 C54.2216,14.2231 54.2876,14.2361 54.3466,14.2461 C54.4146,14.2591 54.4756,14.2931 54.5186,14.3491 C54.5536,14.3941 54.5796,14.4441 54.5866,14.5011 C54.5996,14.5141 54.6116,14.5271 54.6236,14.5401 C54.6656,14.5441 54.7086,14.5481 54.7506,14.5511 C54.7766,14.4711 54.8186,14.3971 54.8246,14.3101 C54.8296,14.2331 54.9436,14.1941 54.9046,14.0971 C54.9536,14.0271 54.9636,13.9371 55.0246,13.8691 C55.0246,13.8021 54.9886,13.7411 54.9736,13.6761 C54.9546,13.5921 54.9816,13.5441 55.0756,13.4841 C55.0606,13.3881 55.1206,13.3031 55.1166,13.2081 C55.1126,13.1141 55.1106,13.0201 55.1186,12.9271 C55.1256,12.8461 55.1556,12.7771 55.2166,12.7121 C55.2886,12.6361 55.3486,12.5491 55.4146,12.4671 C55.4486,12.4271 55.4826,12.3911 55.5306,12.3761 C55.6976,12.3241 55.8616,12.2601 56.0326,12.2271 C56.1836,12.1991 56.3386,12.2261 56.4906,12.2611 C56.5196,12.2671 56.5506,12.2821 56.5746,12.3001 C56.6296,12.3431 56.6876,12.3801 56.7556,12.3951 C56.8286,12.4111 56.8426,12.5061 56.9206,12.5101 C56.9646,12.5091 57.0096,12.5001 57.0486,12.5281 C57.1866,12.6281 57.3466,12.6511 57.5096,12.6581 C57.5756,12.6611 57.6296,12.6761 57.6816,12.7201 C57.7886,12.8101 57.9066,12.8771 58.0516,12.8851 C58.1226,12.8891 58.1796,12.9321 58.2426,12.9621 C58.3606,13.0171 58.4716,13.0871 58.6136,13.0771 C58.6966,13.0711 58.7606,13.1401 58.8346,13.1711 C59.0076,13.2401 59.1686,13.3411 59.3546,13.3791 C59.3786,13.3841 59.4046,13.3921 59.4236,13.4061 C59.5476,13.4951 59.6886,13.5411 59.8366,13.5681 C59.8786,13.5761 59.8966,13.6111 59.8816,13.6541 C59.8636,13.7071 59.8376,13.7581 59.8256,13.8121 C59.8086,13.8771 59.8306,13.9201 59.8896,13.9521 C59.9226,13.9711 59.9566,13.9861 59.9916,14.0011 C60.0946,14.0491 60.1876,14.0531 60.2906,13.9831 C60.3956,13.9121 60.5236,13.8971 60.6506,13.8981 C60.6616,13.8971 60.6726,13.8971 60.6846,13.8981 C60.7246,13.7921 60.7996,13.7401 60.9136,13.7501 C60.9356,13.7271 60.9536,13.6971 60.9786,13.6831 C61.0886,13.6241 61.2006,13.5681 61.3136,13.5151 C61.5166,13.4191 61.7166,13.3191 61.9076,13.1991 C62.1286,13.0611 62.3496,12.9221 62.5706,12.7821 C62.6956,12.7031 62.8256,12.6261 62.9546,12.5521 C63.0856,12.4751 63.2196,12.3951 63.3396,12.2981 C63.3596,12.2821 63.3776,12.2591 63.3996,12.2551 C63.4986,12.2361 63.5866,12.1971 63.6706,12.1361 C63.7496,12.0771 63.8586,12.0681 63.9376,12.0021 C63.9516,11.9901 63.9716,11.9861 63.9906,11.9811 C64.0936,11.9521 64.1896,11.9071 64.2686,11.8321 C64.2826,11.8191 64.2976,11.8051 64.3146,11.8021 C64.4516,11.7711 64.5006,11.8071 64.4906,11.9341 C64.4836,12.0191 64.4446,12.0921 64.3896,12.1531 C64.3436,12.2031 64.2886,12.2461 64.2406,12.2931 C64.2046,12.3281 64.1586,12.3591 64.1366,12.4011 C64.0826,12.5081 63.9866,12.5631 63.9036,12.6371 C63.7526,12.7711 63.5896,12.8871 63.4416,13.0201 C63.3536,13.0991 63.2496,13.1611 63.1736,13.2491 C63.0936,13.3401 62.9936,13.4041 62.9046,13.4811 C62.8266,13.5501 62.7596,13.6331 62.6616,13.6821 C62.6036,13.7121 62.5606,13.7731 62.5266,13.8351 C62.4866,13.9061 62.4256,13.9541 62.3536,13.9991 C62.2336,14.0731 62.1356,14.1741 62.0656,14.3061 C62.0176,14.3951 61.9286,14.4711 61.8426,14.5291 C61.6936,14.6281 61.5736,14.7511 61.4656,14.8901 C61.4546,14.9051 61.4436,14.9201 61.4336,14.9361 C61.3976,14.9971 61.4016,15.0391 61.4496,15.0881 C61.5446,15.1861 61.6356,15.2881 61.7126,15.4011 C61.7256,15.4201 61.7476,15.4361 61.7696,15.4461 C61.8156,15.4671 61.8626,15.4851 61.9136,15.4831 C62.0636,15.4761 62.2146,15.5061 62.3636,15.4591 C62.3796,15.4541 62.4046,15.4481 62.4176,15.4551 C62.5066,15.5011 62.5926,15.4621 62.6736,15.4411 C62.7996,15.4091 62.9396,15.4291 63.0526,15.3461 C63.0616,15.3391 63.0776,15.3361 63.0876,15.3371 C63.2626,15.3621 63.4156,15.2581 63.5846,15.2531 C63.6186,15.2521 63.6446,15.2371 63.6696,15.2171 C63.6836,15.2051 63.7026,15.1901 63.7186,15.1911 C63.8506,15.1921 63.9756,15.1371 64.1086,15.1421 C64.2476,15.1471 64.3846,15.1421 64.5236,15.1441 C64.5996,15.1451 64.6746,15.1371 64.7436,15.1031 C64.8726,15.0371 65.0166,15.0121 65.1426,14.9481 C65.2616,14.8881 65.3826,14.8461 65.5086,14.8111 C65.5516,14.7991 65.5886,14.7771 65.6246,14.7521 C65.7046,14.7001 65.7906,14.6601 65.8826,14.6381 C66.0376,14.6011 66.1736,14.5271 66.3036,14.4401 C66.3676,14.3971 66.4326,14.3671 66.5076,14.3491 C66.6106,14.3251 66.7126,14.2931 66.7976,14.2231 C66.8126,14.2111 66.8306,14.2031 66.8466,14.1951 C67.0236,14.1151 67.1916,14.0201 67.3586,13.9251 C67.3796,13.9121 67.4066,13.9071 67.4276,13.8971 C67.5796,13.8231 67.7306,13.7501 67.8796,13.6741 C67.9076,13.6601 67.9286,13.6351 67.9526,13.6151 C67.9656,13.6021 67.9786,13.5781 67.9926,13.5771 C68.1206,13.5701 68.1926,13.4571 68.3006,13.4171 C68.3956,13.3821 68.4896,13.3541 68.5666,13.2841 C68.5966,13.2561 68.6436,13.2441 68.6836,13.2271 C68.7756,13.1881 68.8706,13.1571 68.9546,13.0991 C69.0226,13.0531 69.0836,13.0771 69.1236,13.1511 Z" id="Fill-2"></path>
            <path d="M12.6787,46.9872 C12.6717,46.9792 12.6697,46.9642 12.6687,46.9512 C12.6677,46.8622 12.6297,46.7812 12.6027,46.6982 C12.5517,46.5452 12.4907,46.3932 12.5097,46.2262 C12.5117,46.2082 12.5077,46.1882 12.5017,46.1712 C12.4387,45.9892 12.4307,45.8022 12.4367,45.6132 C12.4367,45.5892 12.4297,45.5652 12.4247,45.5232 C12.3477,45.5092 12.3167,45.4412 12.2767,45.3772 C12.2327,45.3092 12.2027,45.2182 12.1267,45.1882 C12.0507,45.1572 12.0087,45.0972 11.9517,45.0502 C11.8427,44.9592 11.7687,44.8272 11.6237,44.7792 C11.6077,44.7742 11.5957,44.7542 11.5817,44.7412 C11.5457,44.7072 11.5077,44.6742 11.4737,44.6372 C11.4327,44.5932 11.3617,44.6152 11.3217,44.5642 C11.2937,44.4842 11.3037,44.4042 11.3477,44.3322 C11.4317,44.1932 11.5117,44.0502 11.6107,43.9222 C11.6787,43.8342 11.7237,43.7452 11.7357,43.6362 C11.7407,43.5862 11.7517,43.5372 11.7617,43.4882 C11.7707,43.4382 11.7877,43.3892 11.8347,43.3622 C11.9557,43.2942 12.0037,43.1722 12.0187,43.0512 C12.0437,42.8542 12.1337,42.7002 12.2617,42.5552 C12.3337,42.4722 12.3847,42.3712 12.4787,42.3052 C12.4957,42.2932 12.4997,42.2602 12.5127,42.2402 C12.5827,42.1342 12.6017,42.0062 12.6587,41.8962 C12.7817,41.6602 12.8127,41.4092 12.8157,41.1502 C12.8167,41.0182 12.7977,40.8832 12.8237,40.7562 C12.8467,40.6392 12.8187,40.5482 12.7677,40.4552 C12.7287,40.3832 12.6987,40.3092 12.6657,40.2352 C12.5987,40.0862 12.5117,39.9512 12.3737,39.8572 C12.3407,39.8352 12.3207,39.8042 12.3037,39.7712 C12.2737,39.7112 12.2187,39.6792 12.1657,39.6472 C12.1287,39.6242 12.0827,39.6162 12.0477,39.5912 C11.9747,39.5392 11.9147,39.5512 11.8417,39.5962 C11.7047,39.6792 11.6137,39.8112 11.4887,39.9062 C11.4717,39.9192 11.4627,39.9512 11.4617,39.9742 C11.4597,40.1142 11.3737,40.2332 11.3647,40.3732 C11.3617,40.4132 11.3307,40.4532 11.3057,40.4892 C11.2717,40.5392 11.2307,40.5842 11.1877,40.6372 C11.1367,40.6052 11.0737,40.6212 11.0287,40.5812 C10.9887,40.5272 11.0257,40.4522 10.9837,40.4022 C10.9447,40.3552 10.9387,40.3022 10.9287,40.2462 C10.9117,40.1412 10.8867,40.0382 10.8917,39.9302 C10.8937,39.8822 10.8717,39.8392 10.8277,39.8232 C10.7247,39.7852 10.6867,39.7022 10.6717,39.6072 C10.6617,39.5472 10.6327,39.5052 10.5957,39.4602 C10.5217,39.3692 10.4247,39.2932 10.3937,39.1722 C10.3367,39.1222 10.3097,39.0502 10.2547,38.9972 C10.1807,38.9252 10.1017,38.8592 10.0387,38.7712 C9.9657,38.6712 9.8417,38.6152 9.7247,38.5802 C9.6477,38.5562 9.5687,38.5452 9.4997,38.4992 C9.4137,38.4422 9.3197,38.4172 9.2147,38.4222 C9.1017,38.4282 8.9887,38.4232 8.8757,38.4212 C8.8257,38.4202 8.7727,38.4222 8.7267,38.4062 C8.6187,38.3682 8.5007,38.3972 8.3947,38.3502 C8.3787,38.3432 8.3547,38.3452 8.3387,38.3522 C8.2067,38.4082 8.0717,38.4592 7.9647,38.5622 C7.9107,38.6142 7.9087,38.6712 7.9297,38.7342 C7.9367,38.7572 7.9577,38.7752 7.9697,38.7972 C8.0697,38.9862 8.1537,39.1762 8.1507,39.4002 C8.1497,39.5012 8.1787,39.6102 8.2817,39.6752 C8.3167,39.6982 8.3407,39.7382 8.3667,39.7672 C8.5627,39.7792 8.7237,39.8452 8.8327,40.0102 C8.8427,40.0262 8.8587,40.0372 8.8727,40.0502 C8.9517,40.1222 9.0107,40.2122 9.0767,40.2952 C9.1017,40.3252 9.1257,40.3552 9.1207,40.3942 C9.1127,40.4742 9.1537,40.5382 9.1947,40.6082 C9.1367,40.6822 9.1147,40.7642 9.1217,40.8552 C9.1247,40.8852 9.1227,40.9192 9.1137,40.9482 C9.0737,41.0682 9.0337,41.1862 9.0437,41.3152 C9.0447,41.3272 9.0437,41.3432 9.0367,41.3512 C8.9667,41.4272 8.9777,41.5252 8.9637,41.6162 C8.9507,41.7022 8.9317,41.7892 8.9057,41.8712 C8.8687,41.9832 8.8037,42.0862 8.8147,42.2112 C8.8167,42.2332 8.7967,42.2572 8.7867,42.2792 C8.7347,42.3992 8.6747,42.5142 8.6397,42.6412 C8.5957,42.8042 8.5807,42.9752 8.5037,43.1292 C8.4267,43.2852 8.4127,43.4652 8.3207,43.6162 C8.2817,43.6792 8.2867,43.7622 8.2477,43.8292 C8.2127,43.8882 8.1947,43.9542 8.1757,44.0212 C8.1327,44.1712 8.0757,44.3172 8.0237,44.4652 C7.9687,44.6182 7.9147,44.7722 7.8377,44.9162 C7.8167,44.9542 7.8087,44.9992 7.8007,45.0422 C7.7697,45.1902 7.6917,45.3202 7.6477,45.4642 C7.6407,45.4872 7.6227,45.5092 7.6037,45.5232 C7.5597,45.5572 7.5497,45.6012 7.5407,45.6532 C7.5187,45.7882 7.5087,45.9252 7.4267,46.0452 C7.3857,46.1052 7.3637,46.1812 7.3547,46.2572 C7.3417,46.3782 7.2857,46.4822 7.2317,46.5882 C7.1657,46.7172 7.0867,46.8362 6.9757,46.9402 C6.9917,47.0612 6.9727,47.1832 6.9147,47.2852 C6.8537,47.3912 6.8607,47.5152 6.8007,47.6182 C6.7907,47.6342 6.7837,47.6542 6.7707,47.6662 C6.7227,47.7032 6.7087,47.7592 6.6897,47.8122 C6.6677,47.8722 6.6377,47.9202 6.5887,47.9642 C6.4797,48.0632 6.4127,48.1842 6.4087,48.3402 C6.4057,48.4512 6.3787,48.5632 6.3517,48.6722 C6.3297,48.7662 6.3307,48.8592 6.3427,48.9522 C6.3547,49.0382 6.3757,49.1232 6.3917,49.2062 C6.4467,49.2522 6.4947,49.3022 6.5707,49.3072 C6.6177,49.3092 6.6527,49.3372 6.6817,49.3712 C6.7767,49.4852 6.9007,49.5342 7.0467,49.5322 C7.1137,49.5312 7.1577,49.5662 7.2107,49.6052 C7.3107,49.6792 7.4247,49.7292 7.5597,49.6882 C7.6677,49.6552 7.7447,49.5782 7.7187,49.4742 C7.6867,49.3512 7.7077,49.2232 7.6677,49.1022 C7.6587,49.0742 7.6547,49.0392 7.6617,49.0102 C7.6777,48.9522 7.6757,48.9032 7.6397,48.8502 C7.6207,48.8222 7.6167,48.7792 7.6177,48.7422 C7.6227,48.6102 7.6137,48.4802 7.5487,48.3672 C7.5767,48.3132 7.6027,48.2702 7.6207,48.2242 C7.6457,48.1622 7.7297,48.1912 7.7667,48.1022 C7.7667,48.0632 7.7697,47.9942 7.7657,47.9262 C7.7617,47.8552 7.8057,47.7912 7.8007,47.7232 C7.7947,47.6392 7.8737,47.6172 7.9057,47.5692 C7.8467,47.4532 7.8497,47.4532 7.8647,47.3672 C7.8857,47.2402 7.9327,47.1272 8.0067,47.0232 C8.0347,46.9822 8.0667,46.9432 8.0667,46.8882 C8.0677,46.7602 8.1407,46.6662 8.2217,46.5772 C8.2427,46.5542 8.2747,46.5382 8.2877,46.5122 C8.3127,46.4572 8.3517,46.4402 8.4077,46.4442 C8.4707,46.4482 8.5137,46.4812 8.5407,46.5342 C8.5557,46.5622 8.5657,46.5922 8.5717,46.6232 C8.5917,46.7292 8.6377,46.8232 8.7017,46.9192 C8.7647,46.9442 8.8307,46.9772 8.8947,47.0182 C8.9747,47.0692 9.0577,47.1102 9.0947,47.2072 C9.1037,47.2332 9.1357,47.2542 9.1607,47.2702 C9.3227,47.3752 9.4987,47.4592 9.6357,47.6002 C9.6567,47.6222 9.6867,47.6362 9.7137,47.6522 C9.7957,47.7002 9.8827,47.6952 9.9587,47.6362 C10.0587,47.5592 10.1077,47.4632 10.1067,47.3292 C10.1047,47.1482 10.1937,47.0072 10.3587,46.9262 C10.4697,46.8722 10.5947,46.8692 10.7027,46.9242 C10.8127,46.9792 10.9167,47.0522 11.0107,47.1332 C11.0877,47.2012 11.1717,47.2522 11.2657,47.2852 C11.4307,47.3442 11.5817,47.4262 11.7167,47.5392 C11.7297,47.5502 11.7477,47.5652 11.7647,47.5652 C11.8767,47.5672 11.9487,47.6502 12.0187,47.7142 C12.1007,47.7892 12.1907,47.8592 12.2657,47.9382 C12.3347,48.0112 12.4137,48.0392 12.4947,48.0472 C12.6547,48.0622 12.8157,47.9922 12.8157,47.7952 C12.8157,47.7072 12.8127,47.6202 12.8427,47.5342 C12.8597,47.4872 12.8527,47.4332 12.8297,47.3872 C12.7657,47.2592 12.7807,47.1012 12.6787,46.9872" id="Fill-4"></path>
        </g>
    </g>
</svg>