<?xml version="1.0" encoding="UTF-8"?>
<svg width="71px" height="58px" viewBox="0 0 71 58" version="1.1" xmlns="http://www.w3.org/2000/svg" xmlns:xlink="http://www.w3.org/1999/xlink">
    <!-- Generator: Sketch 46.2 (44496) - http://www.bohemiancoding.com/sketch -->
    <title>Group 3</title>
    <desc>Created with Sketch.</desc>
    <defs></defs>
    <g id="Page-1" stroke="none" stroke-width="1" fill="none" fill-rule="evenodd">
        <g id="Group-3" fill="#F1EFE6">
            <path d="M19.9512,2.0424 C19.9512,2.0654 19.9282,2.0314 19.8842,1.9404 C19.9282,1.9864 19.9512,2.0214 19.9512,2.0424 M13.4912,11.1204 C13.4912,11.1664 13.4792,11.2004 13.4572,11.2234 C13.4332,11.2464 13.4452,11.2124 13.4912,11.1204 M21.3792,2.0764 C21.4242,2.6204 21.4242,3.1204 21.3792,3.5724 C21.2882,4.2084 21.1642,4.8304 21.0062,5.4424 C20.8462,6.0554 20.6532,6.6784 20.4282,7.3134 C19.9282,8.4924 19.4182,9.6364 18.8972,10.7464 C18.3762,11.8574 17.8202,12.9804 17.2312,14.1124 C17.1392,14.2944 17.0152,14.3964 16.8572,14.4184 C16.6982,14.4414 16.5522,14.4084 16.4152,14.3164 C16.2792,14.2264 16.1662,14.1024 16.0752,13.9424 C15.9842,13.7844 15.9842,13.6144 16.0752,13.4334 C16.4372,12.7984 16.7772,12.1414 17.0962,11.4604 C17.4122,10.7804 17.7292,10.1014 18.0482,9.4204 C18.6362,8.2424 19.1362,6.9734 19.5432,5.6124 C19.6342,5.3414 19.7232,5.0584 19.8152,4.7634 C19.9052,4.4684 19.9732,4.1624 20.0192,3.8454 C20.0192,3.7544 20.0422,3.6864 20.0872,3.6414 L20.0872,3.5044 L20.0872,3.1644 L20.0872,2.5534 C20.0422,2.5084 20.0192,2.4624 20.0192,2.4164 L20.0192,2.2804 L20.0192,2.1454 C19.9732,2.1004 19.9512,2.0654 19.9512,2.0424 C19.9512,2.0214 19.9282,1.9864 19.8842,1.9404 L19.7472,1.9404 C19.7472,1.9864 19.7022,2.0094 19.6112,2.0094 L19.4752,2.1454 L19.4072,2.1454 L19.4072,2.2124 C19.0442,2.4394 18.7722,2.7124 18.5922,3.0284 C18.5002,3.1204 18.4212,3.1984 18.3532,3.2674 C18.2852,3.3344 18.2062,3.4144 18.1152,3.5044 C18.1152,3.5504 18.0922,3.5964 18.0482,3.6414 L17.9792,3.7084 C17.9332,3.8004 17.8652,3.8904 17.7752,3.9804 C17.5942,4.2084 17.4352,4.4224 17.3002,4.6264 C17.1632,4.8304 17.0272,5.0464 16.8912,5.2724 C16.3472,6.0884 15.7802,6.9964 15.1912,7.9924 C14.9642,8.3554 14.7602,8.7184 14.5792,9.0804 C14.3972,9.4434 14.1932,9.8284 13.9682,10.2364 C13.8312,10.4644 13.7182,10.6904 13.6272,10.9164 C13.5822,10.9624 13.5592,11.0084 13.5592,11.0534 L13.5592,10.9164 L13.5592,10.8494 C13.5592,10.9394 13.5362,11.0084 13.4912,11.0534 L13.5592,11.0534 L13.4912,11.0534 L13.4912,11.1204 L13.4912,11.1884 C12.9472,12.1414 12.4262,13.1054 11.9282,14.0784 C11.4282,15.0544 10.9302,16.0404 10.4312,17.0364 C9.5242,18.9404 8.6512,20.8564 7.8132,22.7824 C6.9732,24.7104 6.1702,26.6924 5.3992,28.7324 C4.6742,30.5464 3.9942,32.4964 3.3592,34.5804 C3.0422,35.5324 2.7472,36.5084 2.4752,37.5044 C2.2032,38.5024 2.0222,39.5004 1.9312,40.4964 C1.7952,41.5404 1.7512,42.4694 1.7952,43.2844 C1.8412,43.5574 1.8632,43.7944 1.8632,43.9984 C1.8632,44.2024 1.9092,44.4404 1.9992,44.7124 C2.0452,44.8034 2.0782,44.8934 2.1012,44.9844 C2.1242,45.0744 2.1572,45.1654 2.2032,45.2564 L2.2032,45.3244 C2.2032,45.3694 2.2252,45.4154 2.2712,45.4604 C2.3162,45.5054 2.3402,45.5394 2.3402,45.5634 C2.3402,45.5854 2.3612,45.6194 2.4072,45.6644 L2.4752,45.8014 L2.6112,45.9374 C2.6562,45.9374 2.6802,45.9594 2.6802,46.0044 C2.7232,46.0044 2.7692,46.0264 2.8152,46.0724 L2.9512,46.1414 L3.0192,46.1414 L3.0872,46.2084 L3.2232,46.2084 L3.2912,46.2084 L3.5632,46.2084 L3.6992,46.2084 C3.7902,46.2084 3.8572,46.1964 3.9032,46.1754 C3.9482,46.1514 4.0152,46.1414 4.1072,46.1414 C4.2882,46.0494 4.4242,46.0044 4.5152,46.0044 C4.5592,45.9594 4.5942,45.9374 4.6172,45.9374 C4.6392,45.9374 4.6742,45.9134 4.7202,45.8684 C4.7632,45.8684 4.7982,45.8564 4.8212,45.8344 C4.8442,45.8114 4.8782,45.8014 4.9242,45.8014 C5.3312,45.5734 5.6932,45.3474 6.0122,45.1204 C6.2832,44.9384 6.4642,44.8034 6.5552,44.7124 C6.5992,44.7124 6.6232,44.6894 6.6232,44.6454 C6.6682,44.6454 6.7142,44.6214 6.7602,44.5764 C6.8952,44.5304 6.9852,44.4404 7.0312,44.3054 C7.4842,43.9864 7.8702,43.6464 8.1872,43.2844 C9.0032,42.5594 9.7732,41.7884 10.4992,40.9734 C11.1802,40.2024 11.8132,39.4324 12.4032,38.6604 C12.9922,37.8904 13.5822,37.0524 14.1712,36.1454 C14.3972,35.8284 14.5902,35.5214 14.7492,35.2274 C14.9072,34.9324 15.0782,34.6264 15.2602,34.3094 C15.3042,34.2644 15.3272,34.2304 15.3272,34.2064 C15.3272,34.1844 15.3492,34.1504 15.3952,34.1054 C15.3952,34.0604 15.4062,34.0144 15.4302,33.9694 C15.4522,33.9244 15.4402,33.9464 15.3952,34.0364 C15.4402,33.9464 15.4852,33.8444 15.5312,33.7304 C15.5762,33.6184 15.6222,33.5164 15.6672,33.4254 C15.6672,33.3804 15.6892,33.3344 15.7352,33.2884 C15.7352,33.2444 15.7462,33.2104 15.7692,33.1874 C15.7922,33.1644 15.8042,33.1304 15.8042,33.0844 C15.8472,32.9944 15.8712,32.9264 15.8712,32.8804 C15.8712,32.8364 15.8932,32.7684 15.9392,32.6774 C16.0292,32.4964 16.1202,32.2244 16.2112,31.8604 C16.3912,31.3624 16.4832,30.8414 16.4832,30.2964 L16.4832,30.0934 L16.4832,29.9564 C16.4372,29.9564 16.4152,29.9344 16.4152,29.8894 L16.4152,29.8204 C16.3242,29.7304 16.3022,29.6854 16.3472,29.6854 L16.2792,29.6854 L16.2112,29.6164 L16.0752,29.6164 L15.8712,29.6164 L15.7352,29.6164 L15.6672,29.6164 C15.6672,29.6624 15.6432,29.6854 15.5992,29.6854 C15.3272,29.8204 15.0782,30.0024 14.8512,30.2294 C14.4432,30.6374 14.0802,31.1584 13.7642,31.7924 C13.4912,32.2004 13.1742,32.2694 12.8112,31.9964 C12.6302,31.9064 12.5272,31.7814 12.5062,31.6224 C12.4822,31.4644 12.5152,31.2944 12.6072,31.1124 C12.8792,30.4794 13.2982,29.8664 13.8652,29.2764 C14.4312,28.6884 15.0782,28.3484 15.8042,28.2564 C16.5282,28.1664 17.0722,28.4164 17.4352,29.0044 C17.6162,29.2314 17.7292,29.4804 17.7752,29.7524 C17.8202,30.0244 17.8442,30.2744 17.8442,30.5004 C17.7982,31.1364 17.6742,31.7484 17.4702,32.3364 C17.2652,32.9264 17.0502,33.4924 16.8232,34.0364 C16.7322,34.2184 16.6872,34.3554 16.6872,34.4444 C16.6412,34.4444 16.6192,34.4684 16.6192,34.5134 C16.6642,34.4224 16.6762,34.4104 16.6532,34.4794 C16.6302,34.5464 16.5962,34.6044 16.5522,34.6484 C16.5522,34.6944 16.5062,34.8084 16.4152,34.9884 C16.3242,35.1244 16.2452,35.2614 16.1782,35.3964 C16.1092,35.5324 16.0292,35.6684 15.9392,35.8054 C15.4402,36.6664 14.9072,37.4824 14.3422,38.2524 C13.7742,39.0234 13.1742,39.7714 12.5392,40.4964 C11.8592,41.3584 11.1562,42.1854 10.4312,42.9794 C9.7062,43.7714 8.9352,44.5094 8.1192,45.1884 C7.4842,45.7324 6.7812,46.2424 6.0122,46.7194 C5.2402,47.1944 4.4242,47.4774 3.5632,47.5684 C2.7022,47.6134 2.0452,47.3414 1.5922,46.7524 C1.1392,46.1634 0.8212,45.4824 0.6392,44.7124 C0.2772,42.8534 0.3002,41.0184 0.7072,39.2044 C1.1152,37.3924 1.6152,35.6244 2.2032,33.9004 C3.5172,29.8204 5.0132,25.8434 6.6912,21.9674 C8.3682,18.0914 10.2272,14.2944 12.2672,10.5764 C12.3572,10.4404 12.4262,10.3164 12.4722,10.2024 C12.5152,10.0904 12.5842,9.9644 12.6762,9.8284 C12.9922,9.1944 13.3552,8.5364 13.7642,7.8564 C14.2622,6.9504 14.7942,6.0554 15.3612,5.1704 C15.9282,4.2864 16.5282,3.4374 17.1632,2.6204 C17.4352,2.3044 17.7072,1.9984 17.9792,1.7024 C18.2512,1.4084 18.5682,1.1474 18.9312,0.9204 C19.2032,0.7394 19.5192,0.6384 19.8842,0.6144 C20.2462,0.5924 20.5402,0.7174 20.7672,0.9884 C20.8572,1.0804 20.9032,1.1474 20.9032,1.1924 C20.9482,1.1924 20.9482,1.1704 20.9032,1.1244 C20.9032,1.1704 20.9142,1.1924 20.9372,1.1924 C20.9602,1.1924 20.9722,1.2164 20.9722,1.2614 C21.0612,1.3524 21.1072,1.4204 21.1072,1.4644 C21.1972,1.6014 21.2882,1.8054 21.3792,2.0764" id="Fill-105"></path>
            <path d="M29.1299,28.6645 C29.2209,29.0725 29.0629,29.3455 28.6539,29.4805 C28.2459,29.6165 27.8049,29.7525 27.3279,29.8895 C26.8529,30.0245 26.3639,30.1155 25.8659,30.1605 L25.4579,30.1605 C25.4119,30.2525 25.3909,30.3085 25.3909,30.3305 C25.3909,30.3535 25.3669,30.4105 25.3219,30.5005 C25.0949,30.8635 24.8569,31.2045 24.6089,31.5205 C24.3589,31.8385 24.0989,32.1555 23.8259,32.4735 C23.5549,32.7005 23.2479,32.9145 22.9079,33.1185 C22.5679,33.3225 22.2169,33.4705 21.8549,33.5605 C21.3549,33.6515 20.9249,33.5845 20.5629,33.3565 C20.1999,33.1305 19.9499,32.7685 19.8149,32.2685 C19.6789,31.7705 19.6679,31.2825 19.7799,30.8075 C19.8939,30.3305 20.0419,29.8665 20.2229,29.4125 C20.6759,28.3705 21.1959,27.4865 21.7859,26.7615 C22.0589,26.3985 22.3749,26.0585 22.7379,25.7405 C23.1009,25.4245 23.5309,25.2205 24.0299,25.1285 C24.4829,25.1285 24.7549,25.2885 24.8469,25.6045 C24.9369,26.0585 24.7779,26.3305 24.3699,26.4205 C24.0069,26.4665 23.7249,26.6015 23.5209,26.8285 C23.3169,27.0565 23.1009,27.2825 22.8739,27.5095 C22.6469,27.7805 22.4329,28.0765 22.2289,28.3935 C22.0249,28.7105 21.8309,29.0275 21.6509,29.3455 C21.5149,29.6625 21.3889,29.9905 21.2759,30.3305 C21.1619,30.6705 21.0829,31.0225 21.0379,31.3855 C21.0379,31.4765 21.0489,31.6005 21.0719,31.7595 C21.0949,31.9185 21.1509,32.0425 21.2419,32.1335 L21.3779,32.2685 L21.4459,32.2685 L21.5819,32.2685 C22.1259,32.1785 22.6029,31.8945 23.0099,31.4185 C23.4179,30.9425 23.7579,30.4785 24.0299,30.0245 L24.1659,29.8205 C23.6669,29.6405 23.3949,29.3005 23.3509,28.8015 C23.2589,28.3485 23.3839,27.9625 23.7249,27.6445 C24.0649,27.3285 24.4149,27.1915 24.7779,27.2365 L24.9829,27.2365 C25.1629,27.3285 25.3219,27.4185 25.4579,27.5095 C25.5949,27.5545 25.6849,27.6445 25.7309,27.7805 C25.7309,27.8265 25.7529,27.8495 25.7979,27.8495 C25.8889,28.1205 25.9349,28.3025 25.9349,28.3935 L25.9349,28.7325 L25.9349,28.8015 L26.0699,28.8015 C26.7949,28.6645 27.5429,28.4605 28.3149,28.1885 C28.7229,28.0985 28.9939,28.2565 29.1299,28.6645" id="Fill-107"></path>
            <path d="M36.9502,28.5287 C37.1312,28.8457 37.0632,29.1407 36.7462,29.4127 C36.1112,29.9127 35.5112,30.4667 34.9442,31.0787 C34.3772,31.6907 33.6632,32.1107 32.8032,32.3367 C32.5752,32.4277 32.3832,32.4047 32.2242,32.2687 C32.0652,32.1327 31.9862,31.9527 31.9862,31.7247 C31.9862,31.2717 32.0312,30.8307 32.1222,30.3987 C32.2132,29.9677 32.3262,29.5497 32.4632,29.1407 C32.5532,28.8687 32.6332,28.5967 32.7002,28.3247 C32.7682,28.0527 32.8462,27.7807 32.9382,27.5087 C33.0282,27.2827 33.1192,27.0217 33.2112,26.7267 C33.3012,26.4317 33.3462,26.1727 33.3462,25.9447 C33.2552,25.9447 33.1872,25.9677 33.1422,26.0127 L33.0072,26.1487 L32.8702,26.2167 C32.7792,26.3077 32.6882,26.3867 32.5982,26.4547 C32.5072,26.5227 32.4172,26.6017 32.3262,26.6927 C32.0982,26.9207 31.9072,27.1247 31.7482,27.3047 C31.5892,27.4867 31.4192,27.6907 31.2382,27.9167 C30.7392,28.4607 30.3202,29.0617 29.9802,29.7187 C29.6402,30.3767 29.2432,31.0007 28.7902,31.5887 C28.5632,31.8607 28.2802,31.9407 27.9402,31.8267 C27.6002,31.7147 27.4762,31.4527 27.5662,31.0447 C27.7942,30.2747 27.9982,29.4927 28.1792,28.6987 C28.3592,27.9057 28.6082,27.1247 28.9272,26.3527 C29.1072,25.8997 29.3792,25.7407 29.7422,25.8767 C29.8792,25.9227 30.0142,26.0247 30.1502,26.1827 C30.2862,26.3417 30.3082,26.5117 30.2192,26.6927 C30.1272,26.8287 30.0702,26.9547 30.0492,27.0667 C30.0252,27.1797 29.9692,27.3047 29.8792,27.4407 C29.9692,27.3497 30.0702,27.2367 30.1842,27.1007 C30.2972,26.9647 30.3992,26.8517 30.4902,26.7607 C30.7172,26.5347 30.9322,26.3077 31.1372,26.0807 C31.3412,25.8547 31.5542,25.6287 31.7822,25.4007 C32.0092,25.2197 32.2352,25.0497 32.4632,24.8907 C32.6882,24.7327 32.9612,24.6307 33.2782,24.5847 C33.5952,24.4947 33.8792,24.5287 34.1292,24.6867 C34.3772,24.8457 34.5472,25.1067 34.6382,25.4687 C34.6822,26.0577 34.5932,26.7167 34.3662,27.4407 C34.2752,27.7127 34.1962,27.9847 34.1292,28.2567 C34.0602,28.5287 33.9802,28.7787 33.8902,29.0047 C33.7992,29.2767 33.7212,29.5497 33.6522,29.8207 C33.5842,30.0927 33.5052,30.3647 33.4142,30.6367 C33.5952,30.5467 33.7552,30.4327 33.8902,30.2967 C34.0262,30.1607 34.1622,30.0247 34.2992,29.8887 C34.6152,29.6167 34.9102,29.3347 35.1822,29.0387 C35.4542,28.7447 35.7492,28.4837 36.0662,28.2567 C36.2022,28.1667 36.3602,28.1547 36.5422,28.2227 C36.7222,28.2907 36.8592,28.3927 36.9502,28.5287" id="Fill-109"></path>
            <path d="M44.7705,20.641 C43.1385,20.777 41.5065,20.936 39.8745,21.117 C39.2395,22.84 38.6385,24.574 38.0725,26.319 C37.5045,28.065 36.9265,29.798 36.3385,31.521 C35.6585,33.697 34.9675,35.829 34.2645,37.912 C33.5625,39.998 32.8705,42.105 32.1905,44.237 L30.1505,50.628 C29.8335,51.671 29.5275,52.725 29.2325,53.79 C28.9385,54.855 28.6095,55.91 28.2465,56.953 C28.1105,57.361 27.8285,57.507 27.3965,57.395 C26.9655,57.281 26.8185,57.021 26.9545,56.613 C27.4085,55.252 27.8385,53.881 28.2465,52.498 C28.6545,51.116 29.0625,49.745 29.4705,48.385 C29.8775,47.025 30.3095,45.664 30.7625,44.305 C31.2155,42.945 31.6695,41.584 32.1225,40.225 C34.1625,33.924 36.2705,27.6 38.4465,21.252 L28.3145,22.273 C27.8615,22.273 27.6345,22.046 27.6345,21.593 C27.6345,21.231 27.8615,21.004 28.3145,20.912 L38.9225,19.893 L40.7585,14.792 C40.9395,14.34 41.2105,14.181 41.5745,14.317 C41.9825,14.409 42.1405,14.68 42.0505,15.133 C41.7325,15.904 41.4385,16.674 41.1665,17.445 C40.8945,18.216 40.6225,18.987 40.3505,19.756 L49.4625,18.872 L49.7345,18.872 C49.8705,18.872 50.0165,18.907 50.1765,18.975 C50.3345,19.042 50.4145,19.191 50.4145,19.416 C50.4585,19.689 50.4145,19.87 50.2785,19.96 C50.1425,20.052 50.0065,20.12 49.8705,20.164 L49.6665,20.164 C48.0345,20.346 46.4025,20.504 44.7705,20.641" id="Fill-111"></path>
            <path d="M43.6143,27.3725 C43.5233,27.3285 43.4323,27.3055 43.3433,27.3055 L42.5263,27.5095 C42.1633,27.6905 41.9363,27.8495 41.8463,27.9845 C41.7553,28.0765 41.6773,28.1785 41.6083,28.2905 C41.5403,28.4045 41.4833,28.5285 41.4383,28.6645 C41.3923,28.7565 41.3583,28.8465 41.3373,28.9365 C41.3133,29.0275 41.2793,29.1185 41.2343,29.2085 L41.2343,29.2765 L41.2343,29.3455 L41.2343,29.4125 L41.2343,29.4805 L41.2343,29.5495 L41.3023,29.5495 L41.3703,29.5495 C41.4153,29.5045 41.4613,29.4805 41.5073,29.4805 L41.7113,29.2765 L41.7783,29.2765 L41.9143,29.1415 C42.0513,29.0965 42.1403,29.0045 42.1863,28.8685 C42.4133,28.7325 42.5943,28.5525 42.7303,28.3245 C43.0033,28.0535 43.2063,27.8265 43.3433,27.6445 C43.3863,27.6005 43.4213,27.5545 43.4443,27.5095 C43.4673,27.4645 43.5233,27.4185 43.6143,27.3725 M49.1903,28.3245 C49.3263,28.1885 49.4843,28.1325 49.6663,28.1545 C49.8463,28.1785 49.9953,28.2565 50.1083,28.3935 C50.2203,28.5285 50.2893,28.6765 50.3123,28.8345 C50.3353,28.9945 50.2783,29.1415 50.1423,29.2765 C49.8253,29.5495 49.5303,29.8205 49.2593,30.0935 C48.9863,30.3645 48.6693,30.6375 48.3063,30.9085 C47.9433,31.2265 47.5243,31.5105 47.0493,31.7595 C46.5723,32.0085 46.0853,32.1785 45.5873,32.2685 C44.9513,32.3595 44.4863,32.1785 44.1923,31.7255 C43.8973,31.2715 43.7273,30.7725 43.6823,30.2285 C43.6823,29.7755 43.7053,29.4585 43.7503,29.2765 C43.5233,29.4125 43.3433,29.5945 43.2063,29.8205 C42.8883,30.0935 42.5033,30.3765 42.0513,30.6705 C41.5963,30.9665 41.1213,30.9765 40.6223,30.7045 C40.3043,30.5235 40.1013,30.2745 40.0103,29.9565 C39.9203,29.6405 39.9083,29.3005 39.9763,28.9365 C40.0453,28.5745 40.1573,28.2235 40.3163,27.8835 C40.4743,27.5425 40.6673,27.2605 40.8943,27.0325 C41.2573,26.6245 41.8013,26.3185 42.5263,26.1145 C43.2513,25.9105 43.8863,25.9445 44.4303,26.2175 C44.5203,26.0365 44.6353,25.8655 44.7703,25.7065 C44.9063,25.5485 45.0433,25.3785 45.1783,25.1965 C45.4053,24.8805 45.6773,24.8465 45.9943,25.0955 C46.3113,25.3445 46.3793,25.6285 46.1983,25.9445 C45.8813,26.5805 45.5873,27.2485 45.3143,27.9505 C45.0433,28.6535 44.9513,29.3685 45.0433,30.0935 L45.0433,30.5005 C45.0873,30.5465 45.1103,30.5925 45.1103,30.6375 L45.1103,30.7045 L45.2463,30.8415 C45.2013,30.7965 45.2133,30.8075 45.2803,30.8745 C45.3483,30.9425 45.3373,30.9545 45.2463,30.9085 L45.3143,30.9085 L45.3833,30.9085 L45.5183,30.9085 L45.7223,30.9085 C45.7673,30.8635 45.8123,30.8415 45.8583,30.8415 C45.9033,30.8415 45.9493,30.8185 45.9943,30.7725 L46.0623,30.7725 L46.1313,30.7045 C46.2203,30.6605 46.3113,30.6145 46.4023,30.5685 C46.4933,30.5235 46.5833,30.4785 46.6753,30.4335 C46.9003,30.2965 47.0933,30.1725 47.2533,30.0595 C47.4113,29.9455 47.5583,29.8205 47.6943,29.6855 C47.9673,29.4585 48.2263,29.2315 48.4763,29.0045 C48.7253,28.7785 48.9633,28.5525 49.1903,28.3245" id="Fill-113"></path>
            <path d="M55.9219,28.3246 C56.2379,28.0536 56.5449,28.0646 56.8399,28.3586 C57.1339,28.6536 57.1219,28.9606 56.8059,29.2766 C56.3529,29.6846 55.8989,30.0936 55.4459,30.5006 C54.9919,30.9086 54.5169,31.2946 54.0179,31.6566 C53.5189,32.0646 52.9519,32.4626 52.3179,32.8466 C51.6829,33.2326 51.0479,33.4706 50.4139,33.5606 C50.0959,33.6066 49.7679,33.5956 49.4279,33.5266 C49.0879,33.4586 48.8059,33.2886 48.5779,33.0166 C48.0339,32.2926 47.9209,31.4296 48.2379,30.4326 C48.3739,29.9336 48.5679,29.4706 48.8159,29.0386 C49.0659,28.6086 49.3479,28.1886 49.6659,27.7806 C49.9829,27.4186 50.3119,27.0556 50.6509,26.6926 C50.9919,26.3306 51.3879,26.0366 51.8419,25.8086 C52.0679,25.7186 52.2949,25.6286 52.5219,25.5366 C52.7479,25.4466 52.9979,25.4246 53.2699,25.4696 C53.4959,25.4696 53.7229,25.5136 53.9499,25.6046 C54.1759,25.6956 54.3339,25.8546 54.4259,26.0806 C54.6069,26.4886 54.6069,26.8746 54.4259,27.2366 C54.2439,27.5996 54.0179,27.9396 53.7459,28.2566 C53.6089,28.3926 53.4619,28.4506 53.3039,28.4276 C53.1449,28.4046 52.9979,28.3366 52.8609,28.2226 C52.7259,28.1096 52.6469,27.9626 52.6239,27.7806 C52.6009,27.5996 52.6579,27.4406 52.7939,27.3046 C53.0209,27.0786 53.1559,26.8966 53.2019,26.7616 C53.0659,26.7616 52.9749,26.7846 52.9299,26.8286 C52.5219,26.9206 52.1579,27.1126 51.8419,27.4066 C51.5249,27.7026 51.2299,27.9846 50.9579,28.2566 C50.6859,28.6206 50.4369,28.9826 50.2099,29.3456 C49.9829,29.7086 49.8019,30.0936 49.6659,30.5006 C49.4849,30.8186 49.3939,31.2046 49.3939,31.6566 C49.4389,31.7026 49.4619,31.7706 49.4619,31.8606 L49.5299,31.9966 C49.5299,32.0426 49.5519,32.0886 49.5979,32.1336 L49.5979,32.2006 L49.7339,32.2006 C49.7339,32.2466 49.7559,32.2686 49.8019,32.2686 L49.9379,32.2686 C50.0279,32.2686 50.1179,32.2586 50.2099,32.2346 C50.2999,32.2126 50.4139,32.1786 50.5499,32.1336 C50.9119,32.0426 51.3659,31.8386 51.9099,31.5206 C52.6799,31.0676 53.3829,30.5686 54.0179,30.0246 C54.6519,29.4806 55.2859,28.9146 55.9219,28.3246" id="Fill-115"></path>
            <path d="M64.5566,20.641 C62.9246,20.777 61.2926,20.936 59.6606,21.117 C59.0256,22.84 58.4246,24.574 57.8586,26.319 C57.2906,28.065 56.7126,29.798 56.1246,31.521 C55.4446,33.697 54.7536,35.829 54.0506,37.912 C53.3486,39.998 52.6566,42.105 51.9766,44.237 L49.9366,50.628 C49.6196,51.671 49.3136,52.725 49.0186,53.79 C48.7246,54.855 48.3956,55.91 48.0326,56.953 C47.8966,57.361 47.6146,57.507 47.1826,57.395 C46.7516,57.281 46.6046,57.021 46.7406,56.613 C47.1946,55.252 47.6246,53.881 48.0326,52.498 C48.4406,51.116 48.8486,49.745 49.2566,48.385 C49.6636,47.025 50.0956,45.664 50.5486,44.305 C51.0016,42.945 51.4556,41.584 51.9086,40.225 C53.9486,33.924 56.0566,27.6 58.2326,21.252 L48.1006,22.273 C47.6476,22.273 47.4206,22.046 47.4206,21.593 C47.4206,21.231 47.6476,21.004 48.1006,20.912 L58.7086,19.893 L60.5446,14.792 C60.7256,14.34 60.9966,14.181 61.3606,14.317 C61.7686,14.409 61.9266,14.68 61.8366,15.133 C61.5186,15.904 61.2246,16.674 60.9526,17.445 C60.6806,18.216 60.4086,18.987 60.1366,19.756 L69.2486,18.872 L69.5206,18.872 C69.6566,18.872 69.8026,18.907 69.9626,18.975 C70.1206,19.042 70.2006,19.191 70.2006,19.416 C70.2446,19.689 70.2006,19.87 70.0646,19.96 C69.9286,20.052 69.7926,20.12 69.6566,20.164 L69.4526,20.164 C67.8206,20.346 66.1886,20.504 64.5566,20.641" id="Fill-117"></path>
        </g>
    </g>
</svg>