<?xml version="1.0" encoding="UTF-8"?>
<svg width="12px" height="9px" viewBox="0 0 12 9" version="1.1" xmlns="http://www.w3.org/2000/svg" xmlns:xlink="http://www.w3.org/1999/xlink">
    <!-- Generator: Sketch 46.2 (44496) - http://www.bohemiancoding.com/sketch -->
    <title>Group 104</title>
    <desc>Created with Sketch.</desc>
    <defs></defs>
    <g id="Page-1" stroke="none" stroke-width="1" fill="none" fill-rule="evenodd">
        <g id="Group-104" transform="translate(0.000000, -0.040000)" fill="#F1EFE6">
            <path d="M6.1338,8.5658 C4.4518,8.5658 2.7688,8.5658 1.0868,8.5648 C0.6358,8.5648 0.3338,8.2608 0.3338,7.8078 L0.3338,3.2408 C0.3338,2.8518 0.3608,2.8358 0.6978,3.0148 C2.2758,3.8588 3.8548,4.6978 5.4298,5.5468 C5.9038,5.8018 6.3598,5.8028 6.8328,5.5478 C8.4028,4.7028 9.9758,3.8668 11.5488,3.0258 C11.5988,2.9998 11.6488,2.9698 11.7008,2.9468 C11.8668,2.8728 11.9308,2.9068 11.9308,3.0838 C11.9318,4.6958 11.9338,6.3078 11.9298,7.9198 C11.9288,8.2548 11.5778,8.5648 11.2198,8.5648 C9.5248,8.5658 7.8288,8.5658 6.1338,8.5658" id="Fill-100"></path>
            <path d="M6.1313,0.9232 C7.9233,0.9232 9.7143,0.9222 11.5063,0.9232 C11.6503,0.9232 11.8233,0.8932 11.8903,1.0652 C11.9573,1.2352 11.8413,1.3682 11.7353,1.4902 C11.6623,1.5732 11.5683,1.6302 11.4733,1.6822 C9.9163,2.5372 8.3593,3.3932 6.8013,4.2472 C6.3583,4.4902 5.9093,4.4922 5.4653,4.2482 C3.9083,3.3952 2.3513,2.5382 0.7943,1.6842 C0.6213,1.5892 0.4733,1.4712 0.3913,1.2882 C0.2993,1.0882 0.3823,0.9482 0.6033,0.9262 C0.6663,0.9192 0.7313,0.9232 0.7953,0.9232 L6.1313,0.9232 Z" id="Fill-102"></path>
        </g>
    </g>
</svg>