<?xml version="1.0" encoding="UTF-8"?>
<svg width="31px" height="27px" viewBox="0 0 31 27" version="1.1" xmlns="http://www.w3.org/2000/svg" xmlns:xlink="http://www.w3.org/1999/xlink">
    <!-- Generator: Sketch 46.2 (44496) - http://www.bohemiancoding.com/sketch -->
    <title>Group 129</title>
    <desc>Created with Sketch.</desc>
    <defs></defs>
    <g id="Page-1" stroke="none" stroke-width="1" fill="none" fill-rule="evenodd">
        <g id="Group-129" transform="translate(0.000000, -0.040000)" fill="#FFFFFF">
            <path d="M28.7891,21.181 L28.4951,21.181 L28.4951,20.585 L28.8671,20.585 C29.0601,20.585 29.2801,20.617 29.2801,20.869 C29.2801,21.158 29.0591,21.181 28.7891,21.181 L28.7891,21.181 Z M29.0811,21.358 C29.3791,21.322 29.5351,21.158 29.5351,20.883 C29.5351,20.547 29.3311,20.385 28.9131,20.385 L28.2431,20.385 L28.2431,22.148 L28.4951,22.148 L28.4951,21.38 L28.8071,21.38 L28.8121,21.39 L29.2981,22.148 L29.5671,22.148 L29.0481,21.363 L29.0811,21.358 Z" id="Fill-123"></path>
            <path d="M28.8174,22.7181 C28.0194,22.7181 27.3934,22.0871 27.3934,21.2691 C27.3934,20.4501 28.0194,19.8201 28.8174,19.8201 C29.6164,19.8201 30.2414,20.4501 30.2414,21.2691 C30.2414,22.0871 29.6164,22.7181 28.8174,22.7181 M28.8174,19.6011 C27.8814,19.6011 27.1484,20.3331 27.1484,21.2691 C27.1484,22.2051 27.8814,22.9371 28.8174,22.9371 C29.7534,22.9371 30.4864,22.2051 30.4864,21.2691 C30.4864,20.3331 29.7534,19.6011 28.8174,19.6011" id="Fill-125"></path>
            <path d="M22.333,22.5013 L18.578,22.5013 L18.578,16.6253 C18.578,15.2243 18.554,13.4213 16.627,13.4213 C14.673,13.4213 14.374,14.9483 14.374,16.5243 L14.374,22.5013 L10.623,22.5013 L10.623,10.4173 L14.224,10.4173 L14.224,12.0693 L14.274,12.0693 C14.775,11.1193 16.001,10.1173 17.828,10.1173 C21.631,10.1173 22.333,12.6193 22.333,15.8743 L22.333,22.5013 Z M6.389,8.7673 C5.183,8.7673 4.21,7.7913 4.21,6.5893 C4.21,5.3873 5.183,4.4113 6.389,4.4113 C7.591,4.4113 8.565,5.3873 8.565,6.5893 C8.565,7.7913 7.591,8.7673 6.389,8.7673 L6.389,8.7673 Z M4.509,22.5013 L8.268,22.5013 L8.268,10.4173 L4.509,10.4173 L4.509,22.5013 Z M24.203,0.9253 L2.624,0.9253 C1.594,0.9253 0.757,1.7423 0.757,2.7513 L0.757,24.4183 C0.757,25.4273 1.594,26.2453 2.624,26.2453 L24.203,26.2453 C25.235,26.2453 26.076,25.4273 26.076,24.4183 L26.076,2.7513 C26.076,1.7423 25.235,0.9253 24.203,0.9253 L24.203,0.9253 Z" id="Fill-127"></path>
        </g>
    </g>
</svg>