<?xml version="1.0" encoding="UTF-8"?>
<svg width="12px" height="11px" viewBox="0 0 12 11" version="1.1" xmlns="http://www.w3.org/2000/svg" xmlns:xlink="http://www.w3.org/1999/xlink">
    <!-- Generator: Sketch 46.2 (44496) - http://www.bohemiancoding.com/sketch -->
    <title>Fill 98</title>
    <desc>Created with Sketch.</desc>
    <defs></defs>
    <g id="Page-1" stroke="none" stroke-width="1" fill="none" fill-rule="evenodd">
        <path d="M10.8203,8.2152 L9.1673,6.6052 C8.8383,6.2852 8.2923,6.2952 7.9513,6.6262 L7.1183,7.4382 C7.0663,7.4092 7.0113,7.3802 6.9543,7.3492 C6.4283,7.0652 5.7083,6.6762 4.9503,5.9382 C4.1913,5.1972 3.7913,4.4952 3.4983,3.9842 C3.4673,3.9292 3.4383,3.8762 3.4093,3.8262 L3.9683,3.2832 L4.2433,3.0152 C4.5843,2.6832 4.5933,2.1522 4.2653,1.8312 L2.6123,0.2212 C2.2833,-0.0978 1.7373,-0.0888 1.3963,0.2432 L0.9303,0.7002 L0.9433,0.7122 C0.7873,0.9062 0.6563,1.1302 0.5593,1.3712 C0.4693,1.6022 0.4133,1.8202 0.3883,2.0402 C0.1703,3.8032 0.9973,5.4142 3.2413,7.6002 C6.3443,10.6202 8.8443,10.3922 8.9523,10.3812 C9.1873,10.3542 9.4123,10.2992 9.6413,10.2122 C9.8873,10.1182 10.1163,9.9922 10.3163,9.8402 L10.3263,9.8492 L10.7983,9.3992 C11.1393,9.0672 11.1483,8.5352 10.8203,8.2152" id="Fill-98" fill="#F1EFE6"></path>
    </g>
</svg>